<svg xmlns="http://www.w3.org/2000/svg" width="152" height="132" fill="none" viewBox="0 0 152 132"><path fill="#F90" fill-rule="evenodd" d="M136.637 112.335C120.088 124.548 96.0939 131.044 75.4339 131.044C46.4769 131.044 20.4029 120.341 0.668948 102.523C-0.880052 101.125 0.501948 99.2116 2.36395 100.296C23.6529 112.685 49.9789 120.146 77.1719 120.146C95.5149 120.146 115.679 116.339 134.232 108.47C137.031 107.282 139.376 110.313 136.637 112.335Z" clip-rule="evenodd"/><path fill="#F90" fill-rule="evenodd" d="M143.526 104.473C141.409 101.762 129.533 103.188 124.198 103.827C122.583 104.02 122.332 102.61 123.789 101.587C133.262 94.9326 148.784 96.8546 150.588 99.0806C152.406 101.329 150.112 116.892 141.234 124.319C139.869 125.462 138.57 124.852 139.175 123.342C141.171 118.354 145.644 107.184 143.526 104.473Z" clip-rule="evenodd"/><path fill="#fff" fill-rule="evenodd" d="M86.5484 54.1969C86.5484 60.8122 86.7099 66.3224 83.3398 72.2023C80.6137 76.9789 76.2803 79.9188 71.4644 79.9188C64.8856 79.9188 61.0349 74.9573 61.0349 67.6085C61.0349 53.1534 74.1399 50.5235 86.5484 50.5235V54.1969ZM103.843 95.5791C102.706 96.5861 101.068 96.6554 99.7897 95.9738C94.0904 91.2877 93.0708 89.1217 89.9555 84.6627C80.5397 94.1544 73.8695 97 61.675 97C47.2313 97 36 88.1822 36 70.5465C36 56.7672 43.542 47.3987 54.2926 42.805C63.5995 38.7619 76.5995 38.0283 86.5465 36.9252V34.7207C86.5465 30.6795 86.8675 25.9009 84.4625 22.4123C82.3766 19.2876 78.3624 18.0015 74.8346 18.0015C68.2928 18.0015 62.4728 21.3187 61.0465 28.194C60.7488 29.7226 59.6222 31.2359 58.0656 31.3149L41.4405 29.534C40.0356 29.2201 38.4751 28.1073 38.8818 25.9857C42.6994 6.03001 60.9162 0 77.2396 0C85.5852 0 96.4954 2.20446 103.076 8.45203C111.42 16.1686 110.618 26.4573 110.618 37.6625V64.1064C110.618 72.0598 113.957 75.5503 117.092 79.836C118.187 81.3801 118.433 83.2169 117.037 84.3431C113.533 87.2503 107.306 92.6007 103.882 95.6157L103.843 95.5791Z" clip-rule="evenodd"/></svg>