<svg xmlns="http://www.w3.org/2000/svg" width="1171" height="1098" fill="none" viewBox="0 0 1171 1098"><path fill="#fff" fill-rule="evenodd" d="M630.86 387.303C630.8 386.884 630.14 386.914 630.05 387.303C626.23 403.914 620.54 419.814 609.67 433.274C604.41 439.774 598.16 445.675 591.1 450.164C584.03 454.664 576.56 455.934 568.99 458.594C567.54 457.394 565.91 456.444 564.35 455.794C560.57 454.234 555.75 454.744 551.91 456.204C536.43 456.564 520.89 458.984 505.71 461.803C488.82 464.934 472 468.394 455.25 472.194C438.52 475.994 421.88 480.255 405.33 484.784L404.348 485.051C389.593 489.037 373.492 492.291 360.1 499.814C354.408 503.011 349.297 507.157 344.291 511.349L334.523 519.55L314.549 536.359C303.308 545.809 292.037 555.232 280.87 564.774C254.09 587.664 227.37 610.614 200.5 633.404C185.54 646.094 170.58 658.784 155.62 671.464C148.27 677.704 140.92 683.944 133.57 690.175C125.75 696.803 117.44 703.133 110.23 710.414C107.59 713.074 108.35 717.264 111.36 719.224C112.35 719.864 113.32 720.524 114.29 721.214C103.51 728.633 93.4299 736.644 83.7599 745.734C71.4499 757.284 59.3899 769.184 47.8599 781.524C36.3699 793.824 24.9799 806.244 13.7899 818.814L13.3331 819.329C8.46523 824.828 3.78601 830.674 1.41995 837.714C-1.16005 845.374 0.000187635 853.244 3.14995 860.514C9.15994 874.335 18.7499 887.224 27.0399 899.755C35.5899 912.664 44.5099 925.294 53.8199 937.664C72.9199 963.014 93.2999 987.714 115.79 1010.14C140.29 1034.58 166.92 1057.34 195.91 1076.29C202.8 1080.79 209.23 1069.73 202.35 1065.28C152.71 1033.18 111.11 989.425 74.6399 943.255C56.4299 920.204 39.4299 896.114 23.5599 871.394L23.1734 870.795C19.2864 864.794 14.7767 858.632 12.8799 851.684C10.9141 844.476 13.9255 838.197 18.156 832.523L18.6399 831.883C28.3299 819.244 39.7499 807.633 50.4099 795.803L55.5267 790.128C65.7628 778.776 76.0313 767.441 86.6599 756.444C93.0599 749.835 99.4899 743.224 106.01 736.744C109.322 733.448 112.455 729.966 115.557 726.458L117.88 723.824C125.301 729.437 132.253 735.987 138.94 742.444L143.36 746.724C153.2 756.264 162.5 766.335 171.26 776.883C182.91 790.904 193.35 805.744 202.87 821.184C202.49 821.474 202.12 821.764 201.74 822.064C201.41 822.324 201.12 822.624 200.88 822.944C192.909 827.044 185.555 832.369 178.24 837.557L176.15 839.034C170.3 843.144 164.46 847.274 158.73 851.553C158.524 851.707 158.317 851.862 158.108 852.019C153.519 855.445 148.283 859.355 149.89 865.734C150.58 868.484 154.04 870.794 156.86 869.694C158.51 869.053 159.64 868.204 160.64 867.194C163.242 873.898 167.533 880.439 171.568 886.261L172.53 887.644C177.13 894.244 181.935 900.697 186.765 907.13L190.39 911.954C201.07 926.175 211.97 940.303 223.2 954.094C245.39 981.344 269.09 1007.49 295.43 1030.8C310.46 1044.11 326.11 1056.76 342.65 1068.15C351.39 1074.18 359.78 1059.81 350.98 1053.91C295.302 1016.59 251.856 963.964 208.849 913.18L202.768 906.009C196.485 898.616 190.151 891.251 183.59 884.114C177.48 877.464 170.66 869.814 162.87 864.774C162.907 864.727 162.947 864.68 162.989 864.633L163.25 864.344C165.05 862.374 167.3 860.744 169.34 859.034C174.48 854.734 179.66 850.474 184.86 846.234C189.65 842.335 194.52 838.484 199.05 834.284C202.78 839.284 208.08 843.374 213.35 846.694L213.86 847.018C214.2 847.231 214.54 847.438 214.88 847.644C216.56 848.654 218.27 848.874 219.81 848.514H219.82L220.039 848.59C221.726 849.126 223.629 848.552 224.99 847.344C239.96 843.024 254.03 834.714 268.04 828.064C283.39 820.784 298.92 813.844 314.53 807.154C343.39 794.784 373.01 783.255 403.09 774.064C414.3 846.604 417.14 919.505 412.28 992.784C410.88 1013.72 409.51 1034.67 407.07 1055.52C405.88 1056.72 404.74 1057.95 403.91 1059.34C401.04 1064.12 402.1 1070.06 406.86 1073.3C411.472 1076.45 418.013 1076.44 423.843 1076.43C425.308 1076.43 426.727 1076.43 428.06 1076.47L431.403 1076.59C436.976 1076.75 442.558 1076.82 448.137 1076.87L461.338 1076.99C489.541 1077.21 517.75 1076.9 545.953 1076.5L581.319 1075.99C643.901 1075.1 706.524 1074.47 769.05 1077.76C788.38 1078.76 807.65 1080.37 826.93 1082.07C846.02 1083.76 865.21 1084.95 884.28 1082.41C890.63 1081.56 892.7 1076.13 891.18 1071.97C897.53 1073.77 904.52 1073.74 911.03 1074.24L912.533 1074.36C919.535 1074.86 926.361 1075 933.24 1073.13C935.11 1072.62 935.8 1069.57 933.82 1068.68C924.4 1064.44 914.3 1064.16 904.17 1063.32L901.533 1063.11C899.773 1062.96 898.013 1062.77 896.28 1062.41C896.023 1062.36 895.348 1062.12 894.525 1061.81L892.54 1061.04C892.83 1060.69 893.12 1060.33 893.4 1060.05C895.03 1058.43 896.74 1056.94 898.63 1055.62C907.73 1049.29 918.24 1047.26 928.35 1048.92C929.62 1050.65 931.38 1052.01 933.42 1052.57C935.3 1053.09 937.34 1052.9 939.21 1052.19C942.77 1053.78 946.18 1055.85 949.35 1058.37C949.85 1058.77 950.69 1058.27 950.3 1057.63C948.37 1054.47 946.07 1051.71 943.49 1049.36C945.65 1047.07 946.69 1043.9 945.35 1040.64C943.59 1036.36 941.06 1030.88 936.66 1028.71C936.78 1027.45 936.676 1026.12 936.517 1024.74L936.39 1023.69C935.84 1019.19 935.37 1014.68 934.92 1010.16C934.01 1001.14 933.35 992.104 932.95 983.053C932.14 964.934 932.45 946.803 933.14 928.694C934.55 891.974 938.96 855.414 944.42 819.104C944.81 816.524 945.2 813.934 945.58 811.354C945.62 812.085 945.83 812.835 946.17 813.633C947.91 817.764 951.74 821.844 954.6 825.284C960.287 832.095 967.135 837.305 974.199 842.462L978.051 845.264C981.319 847.648 984.517 850.145 987.28 853.104C990.09 856.114 991.41 859.744 993.63 863.104C996.1 866.864 999.73 869.414 1004.35 869.294C1008.01 869.196 1011.58 867.272 1014.9 865.245L1018.01 863.324C1019.64 864.814 1021.95 865.494 1024.74 864.553C1026.34 864.014 1027.94 863.464 1029.54 862.894C1030.77 865.784 1034.59 870.61 1035.51 871.589L1035.63 871.704C1037.97 873.914 1040.63 875.784 1043.47 877.324C1043.26 877.344 1043.05 877.425 1042.9 877.585C1031.33 889.216 1024.76 906.093 1018.4 921.102L1017.73 922.675C1011.6 937.024 1005.87 951.548 1000.2 966.085L994.43 980.922C988.603 995.889 982.805 1010.87 977.57 1026.05C974.56 1034.79 971.66 1043.56 968.7 1052.32C965.79 1060.95 961.98 1069.76 959.96 1078.62C958.42 1085.38 968.02 1090.09 971.54 1083.51C975.82 1075.52 978.69 1066.46 982.14 1058.07C985.67 1049.48 989.21 1040.88 992.73 1032.28C998.426 1018.35 1003.58 1004.2 1008.67 990.026L1013.62 976.212C1019.36 960.204 1025.08 944.176 1030.34 927.994C1033.1 919.494 1035.78 910.994 1038.44 902.474L1039.74 898.302C1041.81 891.718 1043.76 885.204 1044.66 878.314C1044.68 878.175 1044.66 878.044 1044.62 877.934C1045.87 878.564 1047.16 879.133 1048.46 879.644C1053.73 881.704 1059.26 882.744 1064.87 883.364L1065.23 883.404C1065.71 883.459 1066.2 883.516 1066.69 883.574C1072.29 884.235 1078.08 884.919 1082.65 881.194C1084.78 879.464 1084.72 875.303 1082.65 873.574C1078.84 870.378 1073.93 870.408 1069.06 870.437C1067.33 870.448 1065.61 870.458 1063.94 870.324C1057.97 869.835 1052.08 868.614 1046.56 866.255C1042.97 864.714 1040.14 862.294 1037.13 860.053C1061.78 850.374 1085.08 836.314 1099.87 813.734C1109.26 799.373 1112.33 783.288 1114.11 766.541L1114.29 764.864C1115.22 755.734 1115.35 747.335 1110.58 739.154C1105.6 730.594 1099.34 722.585 1093.79 714.374C1070.84 680.454 1048.02 646.454 1025.2 612.454C1013.9 595.604 1003.13 578.364 991.7 561.604C986.7 554.274 981.38 546.454 974.53 540.734C967.8 535.114 960.13 531.044 952.39 527.014L948.433 524.961C929.961 515.39 911.405 506.002 892.57 497.154C888.79 495.374 884.77 493.364 880.58 491.364C873.68 487.194 865.35 484.384 857.98 481.324L856.491 480.709C849.033 477.644 841.404 474.743 833.67 472.484C827.9 470.794 821.01 471.484 818.04 476.614C813 472.934 808.59 468.553 804.52 463.784C799.59 458.024 795.48 451.444 792.37 444.524C790.76 440.954 789.54 437.204 788.46 433.434C787.53 430.194 787.24 426.774 785.73 423.744C785.39 423.064 784.19 423.014 783.87 423.744C781.069 430.08 782.818 438.951 784.558 445.658L784.89 446.914C787.14 455.324 791.04 463.204 796.2 470.204C801.15 476.925 807.45 482.675 814.32 487.384C811.03 497.484 808.32 507.734 804.36 517.664C800.33 527.794 795.87 538.585 787.77 546.175C773.76 559.309 750.713 559.376 731.853 559.43C730.421 559.434 729.012 559.438 727.634 559.448L724.494 559.477C680.042 559.835 632.709 552.357 599 520.894C590.57 513.024 583.9 504.034 578.3 493.984C575.17 488.364 572.29 482.594 569.08 477.024C568 475.154 566.94 473.284 565.79 471.505C566.07 471.664 566.37 471.803 566.69 471.925C576.898 475.912 588.01 469.975 596.233 463.827L596.86 463.354C604.91 457.214 611.74 449.574 617.28 441.114C627.43 425.624 633.66 405.925 630.86 387.303ZM862.484 693.961C879.514 693.847 896.561 693.732 913.52 692.564C913.55 693.294 913.57 694.014 913.59 694.744C905.86 693.624 897.51 695.344 890.26 697.904C882.66 700.585 875 703.904 866.87 704.494C859.28 705.044 852.38 702.494 845.6 699.374L842.733 698.059C839.862 696.748 836.983 695.46 834.08 694.335C834.2 694.335 834.32 694.324 834.44 694.324L837.477 694.253C845.8 694.073 854.14 694.017 862.484 693.961ZM799.5 695.534C797.63 695.604 795.76 695.684 793.89 695.764C786.97 696.064 780.05 696.404 773.13 696.794C771.791 696.867 770.366 697.034 768.905 697.205C765.14 697.646 761.136 698.116 757.75 697.064C757.63 697.544 757.47 698.005 757.26 698.454C757.97 701.994 758.41 705.654 758.68 709.354C763.02 709.824 767.43 709.664 771.71 708.774C781.98 706.644 790.32 700.164 799.5 695.534ZM874.8 711.534C887.47 708.244 900.45 699.614 913.72 699.154C913.98 707.794 914.17 716.434 914.22 725.053C909.69 721.434 903.07 720.104 897.07 721.154C891.354 722.149 885.853 725.302 880.343 728.46C872.07 733.201 863.776 737.955 854.7 735.434C847.96 733.553 842.39 728.704 836.63 724.954C830.87 721.204 824.28 718.133 817.31 717.854C810.83 717.585 805.05 720.394 800.62 725.014C795.8 730.044 792.5 736.154 785.48 738.434C778.214 740.785 771.933 738.281 765.839 734.471L765.15 734.034C763.23 732.794 761.21 731.434 759.11 730.234C759.107 729.116 759.108 727.991 759.108 726.857V726.848C759.109 724.022 759.11 721.165 759.06 718.303C771.842 719.367 782.99 715.1 793.938 708.867L795.09 708.204C801.1 704.704 807.28 700.835 814.27 699.694C821.44 698.534 828.39 701.085 834.86 703.925L836.487 704.642C849.095 710.2 860.647 715.207 874.8 711.534ZM827.76 730.574C823.99 728.585 819.4 726.734 815.04 727.314C810.88 727.863 808.108 730.685 805.546 733.701L804.159 735.353C799.576 740.774 795.065 745.333 788 747.564C780.68 749.864 772.92 748.964 766.11 745.594C763.69 744.394 761.44 742.904 759.18 741.434L759.3 757.383C763.82 759.633 768.42 761.664 773.47 762.894C782.79 765.164 790.71 763.484 798.68 758.344L799.517 757.799C805.52 753.857 811.675 749.164 819.09 748.724C826.326 748.291 831.757 752.303 836.522 757.213L837.08 757.794C843.09 764.133 849.16 767.224 858.1 766.494C866.767 765.786 874.879 761.959 882.819 758.662L883.54 758.364C890.8 755.383 899.17 752.314 907.14 753.454C909.05 753.724 911.52 754.314 913.72 755.344C914.04 747.883 914.19 740.414 914.22 732.934C909.69 729.005 902.64 728.354 896.97 729.964C888.09 732.484 880.82 738.984 872.34 742.514C864.82 745.644 856.98 746.344 849.31 743.383C841.39 740.324 835.18 734.494 827.76 730.574ZM812.51 761.074C815.29 759.524 818.52 758.014 821.79 758.644C825.174 759.301 827.618 761.975 829.903 764.406L830.66 765.204C835.87 770.604 841.53 774.544 849.07 775.755C857.21 777.064 865.66 775.544 873.29 772.624C881.34 769.553 888.91 765.274 897.04 762.404C900.76 761.094 904.95 759.835 908.94 759.854C910.61 759.864 912.06 760.244 913.46 760.764C913.07 768.335 912.49 775.894 911.69 783.454C901.516 778.127 888.286 783.456 878.094 788.138L876.22 789.005C868.17 792.744 860.34 795.564 851.33 794.734C842.809 793.95 836.204 789.934 829.393 785.313L827.6 784.089C821.642 780.051 814.673 776.498 807.28 778.324C800.05 780.104 794.52 785.803 787.31 787.914C780.24 789.984 772.63 790.204 765.45 788.564C763.43 788.094 761.45 787.505 759.52 786.774C759.47 780.704 759.42 774.633 759.38 768.564C769.64 772.914 780.94 775.204 791.27 772.544C799.3 770.474 805.42 765.005 812.51 761.074ZM1114.2 766.624C1114.03 765.865 1114.94 765.284 1115.53 765.855C1125.5 775.464 1132.54 787.744 1140.27 799.124C1147.63 809.964 1155.64 820.384 1161.13 832.345C1166.23 843.464 1169.52 854.744 1170.5 866.964C1171.48 879.095 1170.21 891.255 1168.07 903.204C1163.86 926.744 1154.86 949.034 1144.98 970.685C1135.37 991.732 1124.52 1012.18 1113.06 1032.26L1108.95 1039.42C1103.94 1048.15 1098.87 1056.86 1093.45 1065.32C1086.7 1075.84 1080.54 1086.69 1071.64 1095.47C1065.32 1101.72 1053.41 1095.47 1056.29 1086.54C1057.54 1082.66 1058.52 1078.99 1060.46 1075.38C1061.93 1072.63 1063.59 1069.96 1065.15 1067.26C1068.27 1061.84 1071.36 1056.39 1074.48 1050.97C1081.03 1039.58 1087.93 1028.4 1094.42 1016.97C1105.68 997.155 1116.31 976.964 1125.71 956.185L1126.81 953.732C1135.46 934.49 1143.66 914.559 1147.46 893.744C1151.46 871.815 1147.88 851.145 1140.09 830.534C1136.06 819.874 1131.53 809.454 1126.82 799.074L1125.91 797.091C1121.36 787.184 1116.54 777.33 1114.2 766.624ZM821.752 791.753L820.547 790.977C817.369 788.949 813.724 786.848 809.83 787.594C806.35 788.264 803.36 791.034 800.33 792.744C793.68 796.494 786.22 798.544 778.61 799.064C772.28 799.494 765.71 798.724 759.62 796.844L759.83 816.505C762.06 817.214 764.37 817.724 766.8 817.904C774.18 818.454 781.38 816.684 787.57 812.614L790.701 810.535C796.06 807.014 801.088 804.22 808.18 805.505C815.2 806.784 821.09 811.284 826.83 815.204L827.771 815.836C834.363 820.188 841.045 822.997 849.13 823.064C857.86 823.133 866.49 820.704 874.62 817.714C882.69 814.755 890.36 811.204 898.99 810.114C901.63 809.784 904.85 809.684 907.88 810.204C908.28 807.974 908.66 805.755 909.02 803.524C909.8 798.734 910.47 793.954 911.05 789.164C900.932 786.441 891.325 791.34 881.868 796.162C877.016 798.636 872.202 801.09 867.38 802.484C859.13 804.864 850.15 804.835 841.9 802.534C834.266 800.404 828.265 795.982 821.752 791.753ZM819.422 822.241L820.5 822.974C827.15 827.434 833.82 831.053 841.85 832.214C850.08 833.404 858.43 832.383 866.42 830.234C874.58 828.044 882.16 824.294 889.91 821.005C894.01 819.264 898.15 817.704 902.55 816.894C903.95 816.633 905.33 816.564 906.69 816.564C906.62 816.954 906.54 817.354 906.46 817.744C905.69 821.644 905.49 827.204 903.14 830.524C900.98 833.585 896.34 835.324 893.24 837.144L892.88 837.354L892.069 837.36C889.635 837.402 887.186 837.676 884.81 838.144C879.673 839.146 874.619 841.237 869.551 843.333C860.401 847.119 851.204 850.923 841.39 848.374C828.95 845.154 819.12 835.484 806.11 833.814C799.2 832.925 792.89 834.803 786.64 837.614L784.45 838.595C781.204 840.04 778.117 841.358 774.91 842.454C769.97 840.335 765.03 838.234 760.06 836.184L759.96 827.303C766.53 828.664 773.53 828.454 779.64 827.044C783.32 826.194 786.95 824.784 790.25 822.944C793.53 821.124 796.26 818.394 799.59 816.704C806.376 813.261 813.048 817.854 818.721 821.759C818.956 821.921 819.19 822.082 819.422 822.241ZM804.06 843.094C798.06 842.675 792.66 845.154 787.3 847.794C790.32 849.104 793.34 850.404 796.36 851.694L816.46 860.274C823.1 863.104 830.13 865.564 836.44 869.053C836.89 869.303 837.25 869.604 837.52 869.954C844.08 865.755 851.02 862.005 857.67 858.014C859.19 857.104 860.72 856.194 862.25 855.284C854.33 857.934 846.21 859.264 837.61 856.774C826.14 853.464 816.18 843.944 804.06 843.094Z" clip-rule="evenodd"/><path fill="#fff" fill-rule="evenodd" d="M737.86 0.10508C721.919 -0.48492 705.89 1.47508 690.28 4.62508C659.299 10.8651 627.57 21.0751 599.509 35.7151C587.727 41.8651 576.857 49.4601 567.054 58.2091C558.193 53.9721 544.213 53.6281 541.373 63.3441C540.558 66.1331 540.964 68.6611 542.134 70.8231C541.793 71.0171 541.456 71.2251 541.126 71.4461C538.891 72.9429 537.698 74.032 536.314 75.4067L535.221 76.5021C531.761 79.9731 531.434 86.3961 535.221 89.8231L535.739 90.2911L536.058 90.5691C536.703 91.111 537.395 91.5694 538.118 91.9491C524.847 112.287 515.839 135.465 512.11 159.685C509.919 173.905 509.28 188.125 510.93 202.435C511.73 209.425 512.93 216.885 515.379 223.495C516.57 226.725 518.249 229.865 519.759 232.965C521.4 236.345 524.089 238.815 526.299 241.835C526.539 242.145 526.919 242.305 527.289 242.315C526.62 243.695 526.009 245.095 525.44 246.485C522.169 254.475 519.65 263.085 518.19 271.595C515.44 287.645 517.12 305.695 529.339 317.705C534.209 322.485 541.749 326.315 549.16 327.335C546.789 329.775 544.879 332.676 543.35 336.016C540.49 342.246 545.259 350.676 552.839 348.355C554.28 347.915 555.709 347.355 557.11 346.735C559.289 351.065 563.95 353.995 568.95 353.245C571.86 352.805 573.959 351.675 575.4 350.085C579.009 358.065 583.799 365.315 589.87 371.715C596.289 378.495 603.379 384.605 609.78 391.405C615.999 398.005 619.69 406.625 627.02 412.065C629.299 413.755 632.79 411.955 633.43 409.455C635.915 399.726 629.222 391.626 622.872 384.935L622.07 384.095C615.259 377.016 607.39 371.105 600.14 364.505C592.61 357.646 586.549 350.366 581.089 341.766C580.617 341.026 580.147 340.27 579.675 339.507L577.53 336.025C577.419 335.515 577.299 335.015 577.16 334.525C577.049 332.555 576.39 330.685 575.12 328.965C573.549 326.835 571.45 325.225 569.11 324.475C568.32 323.635 567.499 322.835 566.64 322.095C567.709 320.925 568.65 319.546 569.45 317.945C570.93 314.965 569.2 310.225 565.24 310.615C564.05 310.729 562.882 310.675 561.714 310.621C560.437 310.562 559.161 310.504 557.86 310.665C557.548 310.704 557.237 310.746 556.926 310.786C554.789 311.069 552.656 311.351 550.499 311.055C546.07 310.425 542.1 308.025 539.22 304.665C532.009 296.266 531.249 284.185 532.759 273.705C533.426 269.026 534.567 264.428 535.779 259.855L537.653 252.851C538.72 248.937 540.007 244.882 542.52 241.695C550.406 231.694 563.918 239.542 572.005 245.562L572.74 246.115C572.81 246.165 572.87 246.185 572.94 246.185C573.37 246.885 573.83 247.575 574.31 248.235C576.959 251.815 580.169 254.995 583.48 257.995L584.155 258.611C584.608 259.02 585.066 259.426 585.52 259.826C589.39 263.236 594.629 260.725 595.14 255.845C596.089 246.645 595.83 237.345 596.419 228.105C597.009 218.855 598.07 209.635 599.65 200.505C601.23 191.385 603.27 182.355 605.759 173.455C607.009 168.995 608.379 164.585 609.839 160.195C610.95 156.815 611.78 151.335 614.709 148.985C617.36 146.845 622.35 146.485 625.6 145.795C630.14 144.825 634.709 143.965 639.259 142.995C647.77 141.165 656.27 139.175 664.65 136.815C672.95 134.475 681.18 131.715 689.15 128.395C686.86 132.235 684.589 136.085 682.339 139.945C679.259 145.235 683.299 150.885 688.89 151.355C694.629 151.835 700.44 151.405 706.039 150.045C707.23 149.755 708.32 149.425 709.33 149.035C715.479 148.594 721.755 147.191 727.533 145.767L730.23 145.095C741.209 142.335 751.759 138.565 762.16 134.115C763.325 133.617 764.491 133.109 765.657 132.592C769.971 131.29 774.22 129.777 778.386 128.056C793.831 130.393 809.585 129.487 824.759 125.755C831.31 124.145 838.43 122.125 845.2 119.325C848.57 125.075 853.74 129.735 859.509 133.115C860.14 138.105 860.49 143.145 860.72 148.145C861.459 164.085 862.299 180.025 863.169 195.955L863.449 201.113C865.094 232.07 866.102 263.076 866.339 294.065C866.56 322.305 864.83 350.185 849.53 374.745C836.64 395.465 816.53 411.956 793.18 419.355C778.839 423.896 763.64 425.355 748.669 423.905C741.36 423.195 734.12 421.525 727.129 419.285L726.124 418.968C719.105 416.802 712.421 415.732 705.1 414.845C700.259 414.255 699.089 420.535 701.52 423.485C706.66 429.705 712.15 433.855 719.789 436.675C726.69 439.215 734.009 440.826 741.28 441.875C756.28 444.035 771.41 443.796 786.23 440.405C813.73 434.125 838.039 417.605 854.97 395.195C873.56 370.586 879.549 341.165 879.94 310.855C880.361 278.422 878.752 245.831 876.61 213.451L876.16 206.755C875.2 192.745 874.18 178.685 872.589 164.705C875.22 164.965 877.98 164.145 880.22 161.895C884.584 157.531 885.617 150.814 886.136 144.748L886.27 143.075C886.69 137.485 885.839 131.765 884.31 126.395C882.202 119.041 878.668 112.849 873.676 107.664C880.362 100.458 883.963 90.2601 884.757 80.6321C885.33 73.6941 885.863 64.5751 878.207 61.3421C876.695 60.7031 875.13 60.4671 873.556 60.5001C873.96 58.0291 874.233 55.5281 874.386 52.9971C874.631 48.9731 870.502 44.5621 866.369 44.9781C865.113 45.1051 863.857 45.2401 862.601 45.3711C863.352 44.1701 864.106 42.9721 864.88 41.7861C868.134 36.8091 863.736 31.2601 858.597 30.8351C844.938 29.7061 831.418 26.9051 818.386 22.6621C805.294 18.3981 791.618 14.1071 779.184 8.17208C778.306 7.75308 777.338 8.06308 776.736 8.66708C766.273 1.69258 751.083 0.632179 739.089 0.152815L737.86 0.10508ZM560.99 264.033C556.347 261.874 550.059 258.949 545.23 260.525C543.02 261.245 542.369 263.585 543.369 265.305H543.289L543.496 265.636C544.415 267.034 545.593 267.982 546.885 268.882L547.489 269.296C545.869 270.445 544.629 272.105 544.089 274.225C543.22 277.595 544.629 281.735 547.829 283.425C549.11 284.095 550.499 284.465 551.949 284.535C553.995 284.625 555.701 283.684 557.249 282.505L557.709 282.145C558.39 281.605 558.94 280.885 559.379 280.105C563.11 284.926 566.249 290.616 572.839 290.796C575.989 290.885 579.549 288.375 580.199 285.185C580.27 284.875 580.329 284.565 580.39 284.266C580.999 281.276 580.56 277.776 578.11 275.635C573.19 271.355 568.11 267.305 562.14 264.565C561.77 264.395 561.386 264.216 560.99 264.033Z" clip-rule="evenodd"/><path fill="#fff" fill-rule="evenodd" d="M814.63 173.473L813.193 173.179C811.503 172.841 809.804 172.984 808.311 173.591C806.847 174.187 805.572 175.224 804.68 176.721C803.495 178.714 803.337 180.386 803.887 182.595C804.311 184.302 805.242 185.586 806.46 186.514C807.744 187.491 809.37 188.061 811.06 188.259C818.854 189.175 826.53 190.89 833.992 193.323C837.488 194.464 840.788 196.01 844.058 197.613L846.877 199.002C849.477 200.274 852.163 201.499 855.557 202.389C855.824 202.458 856.087 202.524 856.349 202.587C857.29 202.291 857.45 201.933 857.649 201.673L857.73 201.572C857.972 201.268 858.271 200.802 857.988 198.631C850.583 183.271 830.267 176.742 814.63 173.473ZM717.588 177.83L719.465 177.502C725.273 176.497 732.494 175.532 736.603 180.201C738.782 182.677 739.532 187.279 736.603 189.649C732.767 192.754 728.63 192.651 724.218 192.542C722.704 192.504 721.158 192.466 719.581 192.556C714.493 192.848 709.603 193.69 704.702 195.091C693.95 198.164 685.189 203.774 676.006 209.934C674.801 210.742 673.571 209.201 674.146 208.074C679.447 197.691 689.72 189.162 700.01 183.963C705.502 181.188 711.512 178.886 717.588 177.83ZM703.963 223.146C704.798 212.79 720.57 210.438 722.139 220.686C723.544 229.866 721.89 238.299 717.755 246.564C713.804 254.46 703.874 250.776 703.123 243.586C702.381 236.484 702.907 232.248 703.443 227.933C703.634 226.392 703.827 224.841 703.963 223.146ZM833.205 214.826C829.401 213.715 826.226 215.681 824.027 218.561C823.773 218.893 823.566 219.222 823.38 219.548C816.515 225.856 819.101 238.645 824.501 245.049C827.814 248.976 835.145 247.845 837.413 243.385C841.587 235.172 845.09 218.299 833.205 214.826ZM802.748 292.039C810.872 280.66 799.366 269.957 791.814 265.367C789.836 263.947 791.406 259.243 795.634 259.97C834.031 266.567 814.136 332.708 765.112 296.413C759.275 291.704 766.343 281.334 772.634 285.366C772.953 285.611 773.288 285.869 773.636 286.139C780.704 291.603 793.636 301.601 802.748 292.039ZM767.587 361.926C760.864 359.184 754.866 354.61 750.481 348.766C748.957 346.735 748.561 344.589 748.881 342.627C749.241 340.421 750.546 338.422 752.326 337.08C754.111 335.735 756.345 335.072 758.504 335.41C760.381 335.704 762.248 336.731 763.727 338.862L764.035 339.288C766.642 342.815 770.04 345.708 773.91 347.574C777.641 349.372 781.814 350.211 786.132 349.723C794.356 348.794 800.024 344.346 806.049 338.306C806.796 337.544 807.543 336.757 808.294 335.958C808.768 335.234 809.426 334.768 810.157 334.524C810.968 334.253 811.886 334.268 812.726 334.562C813.537 334.845 814.262 335.381 814.747 336.094C815.209 336.772 815.471 337.61 815.386 338.574C814.835 344.833 811.562 350.419 806.914 354.805C801.752 359.677 794.909 363.047 788.466 364.229C781.368 365.531 774.136 364.598 767.587 361.926Z" clip-rule="evenodd"/></svg>