<svg xmlns="http://www.w3.org/2000/svg" width="1500" height="1500" fill="none" viewBox="0 0 1500 1500"><path fill="#fff" fill-rule="evenodd" d="M746.011 599.79C746.44 598.62 748.188 598.775 748.221 600.089C748.91 628.142 741.926 662.423 719.478 681.372C707.955 691.099 692.72 695.55 678.729 700.666L677.151 701.248L652.433 710.456C651.501 710.803 650.558 711.177 649.61 711.553C643.892 713.82 637.981 716.164 633.014 713.205C637.7 724.825 641.634 736.765 647.341 747.964C654.445 761.905 663.034 774.66 673.546 786.261C715.192 832.22 781.102 846.239 840.249 832.773C870.706 825.838 900.343 812.696 921.122 788.726C936.914 770.506 945.987 746.052 948.125 721.931C947.5 722.031 946.845 722.027 946.172 721.879C938.688 720.246 931.133 716.235 924.548 712.301L923.914 711.921C917.578 708.107 910.974 703.736 906.427 697.81C901.911 691.925 897.172 672.728 897.172 672.728C895.881 665.513 894.669 651.14 894.877 643.847C894.896 643.159 897.949 642.753 898.275 643.468C901.096 649.659 902.008 663.262 904.185 669.706L904.625 670.993C906.95 677.722 908.944 685.915 913.765 691.355C922.816 701.57 936.472 705.894 948.661 711.017C949.536 699.472 967.976 699.741 967.742 711.782C967.729 712.435 967.7 713.085 967.677 713.736C969.131 714.535 970.53 715.45 971.837 716.332L973.113 717.198C977.941 720.482 982.806 723.603 987.947 726.389C997.9 731.784 1008.44 736.061 1018.64 740.958C1028.95 745.913 1038.6 751.816 1047.61 758.881C1051.84 762.198 1055.9 765.732 1059.75 769.486L1060.79 770.516C1064.45 774.164 1069.22 778.243 1071.31 783.037C1071.77 784.094 1074.07 786.552 1075.32 786.634C1094.7 787.905 1114.03 789.698 1133.29 792.388C1138.27 793.084 1140.24 795.653 1138.4 799.808C1132.07 814.086 1107.28 871.107 1100.69 886.41C1101.08 892.153 1101 898.416 1100.92 904.668V904.671C1100.85 910.671 1100.77 916.639 1101.11 922.132C1102.13 938.542 1103.45 954.946 1105.05 971.31C1110.75 1029.85 1119.39 1088.1 1127.2 1146.38C1131.11 1175.55 1134.67 1204.76 1138.18 1233.98C1139.96 1248.74 1141.47 1263.52 1142.63 1278.35C1143.11 1284.53 1143.55 1290.71 1143.94 1296.9L1144.27 1302.38C1144.32 1303.11 1144.37 1303.83 1144.43 1304.54C1144.89 1310.66 1145.34 1316.5 1141.51 1321.81C1139.58 1324.49 1135.15 1326.01 1132.6 1322.95C1129.4 1319.11 1128.21 1316.25 1127.91 1311.2C1127.67 1307.34 1127.62 1303.47 1127.44 1299.6C1127.06 1291.23 1126.58 1282.85 1126.02 1274.49C1124.91 1257.76 1123.63 1241.04 1122.15 1224.34C1116.98 1165.79 1107.14 1107.67 1100.59 1049.27C1097.29 1019.82 1094.95 990.319 1093.71 960.71C1093.08 945.924 1092.86 931.139 1093.01 916.34C1093.06 910.812 1093.32 905.31 1093.7 899.82C1083.89 922.101 1073.58 944.167 1062.8 965.94L1060.25 971.096C1053.42 984.858 1046.4 998.671 1038.19 1011.64L1036.78 1013.86C1033.45 1019.13 1028.91 1027.44 1022.84 1029.1C1019.73 1029.95 1016.1 1029.73 1012.67 1029.53C1011.45 1029.45 1010.26 1029.38 1009.12 1029.36C1004.82 1029.28 1000.52 1029.26 996.224 1029.08C991.405 1028.89 986.807 1028.26 982.15 1027C981.376 1026.79 980.644 1026.57 979.977 1026.28C975.285 1033.96 967.313 1039.81 959.162 1043.21C952.633 1045.94 945.79 1047.81 938.936 1049.54L936.517 1050.15C929.169 1051.98 920.763 1052.85 916.619 1059.95L915.656 1061.59C912.575 1066.83 909.619 1071.42 904.52 1075.18C899.031 1079.22 892.528 1081.76 886.05 1083.74C879.417 1085.76 872.629 1087.31 865.894 1088.97L864.059 1089.43C859.613 1090.54 855.127 1091.56 850.707 1092.77C848.822 1093.29 846.903 1093.82 845.053 1094.46C842.887 1095.2 841.313 1096.36 839.604 1097.63C838.068 1102.99 831.503 1105.91 826.105 1105.53C823.27 1105.34 820.727 1104.37 818.413 1102.96C814.374 1106.4 809.927 1109.48 805.81 1112.67C800.045 1117.13 794.257 1121.56 788.437 1125.94C776.437 1134.99 764.346 1143.91 752.129 1152.66C730.444 1168.19 708.29 1183.01 685.757 1197.28C676.362 1203.23 666.904 1209.17 657.353 1214.97L658.372 1215.35L660.394 1216.11C665.173 1217.9 670.498 1220.78 671.424 1226.35C672.158 1230.78 669.688 1233.82 665.322 1234.36C660.133 1235.01 656.095 1231.34 652.864 1227.84C651.438 1226.3 649.842 1224.86 648.476 1223.27C647.919 1222.62 647.491 1221.88 647.114 1221.09C637.688 1226.65 628.162 1232.01 618.485 1237.03L616.063 1238.28C592.066 1250.55 568.709 1263.99 544.508 1275.92C538.195 1279.03 530.498 1282.39 522.475 1284.69C524.604 1292.94 524.571 1302 524.625 1310.37C524.676 1318.54 511.705 1318.5 511.979 1310.37L512.111 1306.45C512.347 1299.85 512.733 1293.01 514.298 1286.59C490.659 1290.51 467.045 1281.99 462.648 1279.43C457.795 1276.61 453.39 1272.09 449.724 1267.9C441.879 1258.94 436.435 1248.19 431.605 1237.38C421.259 1214.22 413.929 1189.47 408.57 1164.71C388.813 1073.45 397.311 975.766 429.396 888.28C437.412 866.421 446.876 845.044 457.721 824.441L459.067 821.894C469.89 801.519 481.917 781.222 497.196 763.884C513.11 745.825 532.741 731.78 554.115 720.878C564.546 715.558 575.279 710.947 586.249 706.861C588.011 706.204 589.785 705.615 591.563 705.054C602.995 697.766 616.869 690.794 630.748 691.068C631.691 691.085 632.455 691.443 633.025 691.982C633.694 692.099 634.363 692.241 635.033 692.436C636.512 692.865 638.074 694.486 637.862 696.151L637.79 696.705C637.751 696.975 637.701 697.237 637.617 697.492C638.113 697.566 638.6 697.684 639.077 697.847C652.356 694.097 665.421 688.362 678.379 683.736L681.33 682.694C692.183 678.89 703.317 675.163 712.22 667.636C721.077 660.148 727.737 650.449 732.552 639.964C738.484 627.046 741.14 613.052 746.011 599.79ZM619.874 700.489C622.675 699.955 625.479 699.4 628.283 698.772C629.301 698.912 630.314 699.116 631.319 699.38C629.826 700.712 628.736 702.693 628.394 704.741C627.908 704.821 627.457 705.136 627.355 705.637C621.462 734.816 638.848 765.587 656.475 787.558C662.095 794.564 668.371 801.056 675.135 807.026C673.934 807.247 672.776 807.628 671.609 808.027L670.742 808.321C669.587 808.713 668.439 809.112 667.313 809.588C663.749 811.093 661.466 813.407 660.399 817.252C658.701 823.37 663.479 829.556 669.788 829.577C673.083 829.589 676.142 828.463 678.301 825.892C679.192 824.83 679.993 823.695 680.778 822.55L682.024 820.73C682.722 819.692 683.331 818.686 683.829 817.505C684.2 816.626 684.389 815.691 684.546 814.745C698.831 825.62 714.849 834.29 731.55 840.359C763.941 852.128 799.28 854.195 833.14 848.563C866.336 843.042 900.27 830.062 924.826 806.437C948.468 783.689 964.205 753.411 967.226 720.821C972.025 725.989 977.285 730.765 983.17 734.56C992.47 740.558 1002.67 744.791 1012.58 749.646C1022.48 754.5 1032.02 760.137 1040.69 766.978C1045.07 770.435 1049.24 774.175 1053.19 778.12C1055.56 780.499 1057.72 783.259 1060.09 785.738C1050.86 785.253 1041.62 784.861 1032.37 784.53C1030.25 784.454 1028.11 784.34 1025.95 784.225C1020.02 783.908 1014 783.587 1008.16 784.058C1000.43 784.681 995.041 788.706 990.993 795.152C981.888 809.652 974.656 825.816 967.403 841.388L964.606 847.371C962.45 851.998 960.318 856.672 958.267 861.391C956.698 860.26 954.937 859.302 953.327 858.467L952.154 857.862C948.86 856.167 945.342 855.791 941.71 855.622L940.717 855.581C937.211 855.445 936.115 859.653 938.066 861.982C940.209 864.542 941.935 867.257 944.447 869.487C947.131 871.868 949.149 874.545 952.266 876.142C948.974 884.909 946.182 893.837 944.266 902.933C940.609 903.659 936.967 904.45 933.343 905.302C919.729 908.504 906.321 912.515 892.964 916.642C888.72 917.954 884.41 919.212 880.161 920.623C881.013 919.469 881.565 918.034 881.645 916.387C881.846 912.266 879.816 908.231 877.845 904.314C876.941 902.519 876.051 900.75 875.394 899.009L874.819 897.524C872.871 892.603 870.604 887.939 868.463 883.073C867.447 880.765 863.285 881.288 862.894 883.801C861.888 890.267 861.494 896.073 862.513 902.56C863.495 908.816 864.161 917.143 868.996 921.626C870.035 922.59 871.201 923.175 872.392 923.466C867.33 925.536 862.476 928.041 858.063 931.38C848.175 938.864 839.962 948.846 832.208 958.679L827.728 964.379C821.664 972.077 815.832 979.946 810.088 987.88C806.272 987.848 802.636 989.218 799.49 991.449C798.379 990.212 796.814 989.394 795.069 989.452C789.215 989.644 785.02 992.373 779.994 995.116L774.623 998.044C771.042 999.995 767.459 1001.94 763.874 1003.88C753.641 1009.42 743.349 1014.85 733.105 1020.37C712.66 1031.38 691.979 1042 671.118 1052.21C641.545 1066.68 610.692 1078.9 579.284 1089.11C580.147 1084.27 580.138 1079.01 580.365 1073.95C580.93 1061.37 581.361 1048.82 581.593 1036.23C581.819 1024.01 581.779 1011.7 581.078 999.498L581.004 998.162C580.409 986.981 580.226 974.664 574.948 964.624C574.511 963.792 573.332 964.076 573.063 964.87C569.435 975.591 568.202 987.347 566.459 998.505C565.8 1002.73 565.22 1006.98 564.697 1011.23C564.299 1011.11 563.882 1011 563.441 1010.91C560.595 1010.3 557.722 1010.13 554.835 1010.49C551.648 1010.89 550.437 1015.51 554.025 1016.48L554.591 1016.64C557.946 1017.69 560.541 1019.84 563.55 1021.45C563.083 1026.05 562.675 1030.65 562.311 1035.24C561.363 1047.15 560.554 1059.04 559.92 1070.97C559.618 1076.66 559.115 1082.37 558.957 1088.05C558.886 1090.61 559.242 1092.93 559.859 1095.16C554.248 1096.82 548.625 1098.43 542.992 1099.97L542.238 1100.18C526.883 1104.42 512.002 1109.46 499.245 1118.38C494.882 1121.43 496.029 1125.81 500.147 1123.56C511.992 1117.07 524.841 1112.01 538.094 1109.45L547.374 1107.68C552.284 1106.73 557.18 1105.75 562.063 1104.73C562.368 1106.17 562.906 1107.53 563.854 1108.99L568.289 1115.81C570.722 1119.56 575.622 1120.73 579.274 1117.91C582.989 1115.04 582.938 1110.16 580.031 1106.75L575.744 1101.73C586.345 1099.28 596.875 1096.53 607.326 1093.32C625.855 1087.62 643.821 1080.1 661.643 1072.43L671.911 1068.01C693.014 1058.92 713.562 1048.78 733.91 1038.12C745.302 1032.15 756.551 1025.93 767.767 1019.64C773.368 1016.5 778.96 1013.34 784.547 1010.17C786.104 1009.29 787.666 1008.47 789.195 1007.63C788.071 1013.53 788.115 1019.91 788.281 1026.01L788.387 1029.63C788.628 1037.95 789.42 1046.42 791.06 1054.58C793.776 1068.11 799.227 1081.22 807.629 1092.22C808.145 1092.9 808.678 1093.58 809.225 1094.27C806.975 1095.96 804.773 1097.72 802.528 1099.4C797.138 1103.43 791.723 1107.43 786.283 1111.4C775.898 1118.97 765.409 1126.4 754.828 1133.69C733.662 1148.28 712.182 1162.46 690.471 1176.23C656.766 1197.6 622.516 1218.11 587.525 1237.28C587.269 1236.03 587.063 1234.78 586.979 1233.55L586.961 1233.34C586.408 1227.89 578.962 1225.23 575.957 1230.56C573.177 1235.49 572.02 1239.97 572.681 1245.31C567.448 1248.1 562.201 1250.86 556.934 1253.59L555.702 1254.23C543.791 1260.44 531.732 1267.42 519.031 1271.79C512.608 1274 509.162 1275.21 496.433 1275.21C483.703 1275.21 472.955 1269.73 469.793 1267.21C465.995 1264.18 462.512 1260.98 459.374 1257.24C452.987 1249.65 447.814 1241 443.907 1231.9C435.942 1213.33 430.434 1193.51 425.709 1173.87L424.906 1170.5C421.268 1155.12 418.412 1139.52 416.321 1123.81C419.058 1124.25 421.626 1124.44 424.529 1124.01C427.86 1123.52 431.149 1122.86 434.418 1122.05C443.202 1119.89 439.282 1105.7 430.688 1108.52C427.71 1109.5 424.707 1110.36 421.654 1111.07C419.3 1111.62 417.2 1112.52 415.053 1113.49C412.259 1088.3 411.467 1062.88 412.751 1037.65C414.269 1007.86 418.555 978.243 425.406 949.224C426.124 949.628 427.023 949.758 428.069 949.415C434.97 947.155 441.929 944.587 449.086 943.268C452.156 942.702 454.016 939.455 454.165 936.597C454.232 935.302 453.867 934.21 453.22 933.106C451.781 930.648 448.247 928.886 445.408 929.927C438.709 932.384 432.735 935.253 427.689 939.92C430.543 928.784 433.769 917.741 437.374 906.821C451.405 864.316 471.01 822.425 497.366 786.1C512.624 765.071 531.089 747.915 553.488 734.72C564.575 728.189 576.204 722.613 587.876 717.214C598.877 712.126 609.219 706.2 619.874 700.489ZM608.565 747.071C611.141 744.751 615.885 745.448 616.721 749.224C617.891 754.512 618.603 760.47 617.837 765.838C617.422 768.747 617.266 772.014 616.122 774.725C614.892 777.64 612.526 779.882 610.297 782.074C605.847 786.45 596.466 785.003 595.274 778.108L595.123 777.262C595.079 777.026 595.035 776.788 594.991 776.55C594.421 773.496 593.821 770.279 594.644 767.279C595.314 764.839 596.812 762.351 598.051 760.088L598.312 759.606C600.794 754.984 604.663 750.583 608.565 747.071ZM971.588 758.331L970.656 758.322C966.721 758.316 966.508 763.464 969.784 764.767C972.816 765.973 975.737 767.648 978.242 769.746C978.371 769.854 978.5 769.963 978.629 770.071C981.542 772.52 984.264 774.808 988.38 773.855C990.459 773.373 992.01 771.203 991.994 769.109C991.924 760.224 978.779 758.473 971.588 758.331ZM1007.12 792.957C999.043 794.525 995.75 804.497 992.348 810.997C984.319 826.337 976.935 841.958 969.519 857.599C967.236 862.41 965.013 867.258 962.77 872.097C962.633 872.476 962.457 872.849 962.25 873.218C957.655 883.111 952.923 892.939 947.392 902.33C952.454 901.382 957.542 900.574 962.649 899.938C962.438 896.006 964.601 890.987 966.288 887.073C966.663 886.201 967.016 885.384 967.312 884.646L967.448 884.305C969.479 879.117 971.608 870.945 976.836 868.253C978.578 867.357 980.441 868.48 980.575 870.398C980.874 874.716 977.753 879.506 975.033 883.68C974.156 885.026 973.321 886.308 972.656 887.489C971.005 890.421 969.396 893.366 967.828 896.343C967.24 897.457 966.749 898.552 966.146 899.534C968.78 899.249 971.417 898.995 974.061 898.81L975.784 898.692C985.586 898.046 995.997 897.861 1004.85 902.695C1013.07 907.178 1017.27 916.749 1012.76 925.464C1007.13 936.321 994.748 937.76 983.858 938.64C970.256 939.737 956.623 941.718 943.117 943.65C929.147 945.648 915.992 950.798 902.23 953.445C900.95 953.691 900.153 952.017 901.327 951.302C912.182 944.694 925.38 941.058 937.516 937.354L938.498 937.054C945.081 935.032 951.515 932.722 958.325 931.575C964.936 930.462 971.588 929.56 978.256 928.874L978.903 928.814C979.713 928.746 980.661 928.688 981.706 928.624C990.138 928.11 1004.89 927.21 1004.18 917.539C1003.66 910.345 991.965 909.103 986.627 909.017C962.153 908.625 937.503 915.121 914.244 922.081L909.051 923.638C899.527 926.503 889.99 929.452 880.645 932.811C870.055 936.617 861.712 942.552 853.999 950.675C845.447 959.682 837.164 968.892 828.292 977.595C822.699 983.082 817.034 988.471 811.323 993.816C810.033 995.486 809.001 997.303 808.286 999.66C807.078 1003.64 807.356 1007.34 807.812 1011.43C808.962 1021.76 809.216 1032.2 810.657 1042.49C811.993 1052.03 813.861 1061.92 817.822 1070.77C819.39 1074.28 821.432 1077.72 823.756 1080.8L825.632 1083.23C826.45 1084.29 827.365 1085.45 828.326 1086.55C829.736 1084.83 831.776 1083.71 834.147 1083.99C839.186 1084.58 843.147 1084.44 848.09 1083.28C851.916 1082.38 855.712 1081.34 859.521 1080.36C867 1078.46 874.549 1076.72 881.952 1074.53L883.224 1074.14C888.741 1072.45 894.26 1070.33 898.852 1066.77C904.187 1062.63 905.828 1056.66 909.78 1051.5C918.218 1040.47 936.452 1040.7 948.798 1037.68C959.29 1035.12 969.387 1031.07 976.648 1023.46L977.072 1023C976.75 1021.65 977.272 1020.11 978.534 1019.41L978.809 1019.26C979.301 1018.98 979.831 1018.87 980.351 1018.88C981.025 1017.89 981.675 1016.87 982.266 1015.78C982.752 1014.88 983.967 1015.54 983.808 1016.43C983.713 1016.96 983.581 1017.47 983.456 1017.99C989.537 1016.43 996.134 1016.47 1002.42 1016.52C1003.41 1016.52 1004.39 1016.53 1005.35 1016.53L1014.62 1016.5C1016.23 1016.48 1018.62 1016.4 1018.83 1016.3L1019.05 1016.2C1019.15 1016.16 1019.21 1016.13 1019.24 1016.12L1019.24 1016.12C1019.26 1016.12 1019.26 1016.11 1019.26 1016.11C1019.26 1016.11 1019.26 1016.11 1019.25 1016.12C1019.2 1016.13 1018.95 1016.18 1019.21 1015.83C1019.65 1015.24 1020.09 1014.64 1020.52 1014.04C1022.05 1011.89 1023.51 1009.68 1024.93 1007.44C1009.41 1011.4 993.337 1013.86 977.491 1015.91C960.491 1018.11 943.267 1019.64 926.115 1019.65C921.387 1019.66 921.43 1012.52 926.115 1012.34C944.277 1011.65 962.344 1010.69 980.384 1008.36C989.713 1007.15 999.003 1005.64 1008.24 1003.88C1011.81 1003.2 1015.36 1002.47 1018.91 1001.71L1021.58 1001.13C1023.24 1000.76 1027.96 1000.23 1030.26 998.683C1030.71 997.906 1031.16 997.131 1031.61 996.355C1031.41 993.874 1025.65 993.954 1023.4 993.985L1023.39 993.986H1023.39C1023.17 993.989 1022.98 993.991 1022.84 993.991C1019.89 993.985 1016.93 993.998 1013.98 994.011H1013.97L1013.96 994.012H1013.95H1013.93H1013.93H1013.91H1013.91H1013.89H1013.89C1012.27 994.019 1010.65 994.027 1009.02 994.031C1000.3 994.056 991.582 993.986 982.86 993.916H982.857L981.39 993.904C976.678 993.865 971.962 993.795 967.244 993.724C953.53 993.519 939.803 993.313 926.123 993.898C921.659 994.088 919.314 986.929 923.726 985.046C943.204 976.73 964.826 974.923 985.624 972.366C996.561 971.023 1007.5 969.471 1018.2 966.751L1020.84 966.078C1027.56 964.356 1034.97 962.257 1040.63 958.154C1032.13 954.715 1021.56 955.109 1012.75 954.622L1012.08 954.583C999.736 953.825 987.375 953.437 975.013 953.419C949.719 953.384 924.417 954.28 899.151 955.479C898.517 955.509 898.386 954.508 899.002 954.374C924.971 948.708 951.364 945.978 977.94 945.558C990.317 945.362 1002.7 945.537 1015.07 946.084L1019.6 946.294C1030.15 946.748 1041.85 946.871 1050.67 953.238C1052.01 954.208 1052.72 955.447 1052.83 956.758C1064.66 933.175 1075.59 909.099 1086.56 885.183C1095.09 866.587 1103.3 847.835 1112.14 829.384L1115.01 823.415C1118.84 815.45 1122.76 807.484 1127.12 799.808C1110.82 797.629 1094.43 796.116 1078.03 794.958C1063.08 793.901 1014.32 791.562 1007.12 792.957ZM1014.13 845.098C1020.53 836.376 1024.79 826.358 1026.5 815.669C1028.26 804.657 1012.75 802.423 1011.32 813.614L1011.27 813.894C1008.6 816.628 1006.26 820.586 1004.74 823.299L1003.73 825.109C1000.33 831.29 997.549 838.663 1002.06 845.098C1005.26 849.647 1010.91 849.481 1014.13 845.098ZM507.582 849.653C509.47 849.52 511.369 849.772 513.264 850.023C514.058 850.128 514.851 850.233 515.643 850.31L518.497 850.587C524.38 851.172 529.896 851.894 535.506 854.288C545.858 858.706 540.298 875.347 529.906 874.965C522.225 874.683 515.657 871.384 509.171 867.544C503.501 864.187 500.025 859.987 496.196 854.716C494.928 852.97 496.695 851.013 498.422 850.837C501.464 850.527 504.539 849.866 507.582 849.653ZM803.615 884.02C793.269 883.602 782.942 883.14 772.609 882.46L772.416 882.453C769.006 882.409 768.761 887.399 771.799 888.445C781.778 891.885 791.669 895.526 801.559 899.214C811.57 902.946 815.599 884.505 803.615 884.02ZM651.009 897.981C652.215 897.598 653.407 897.193 654.594 896.789C660.056 894.934 665.392 893.121 671.274 893.728C673.177 893.923 674.54 895.776 673.501 897.606C670.108 903.577 664.59 906.948 659.159 910.942L658.68 911.296C652.735 915.718 646.352 919.747 639.887 923.376C628.756 929.622 618.781 911.745 630.022 906.499C636.786 903.342 643.891 900.243 651.009 897.981ZM1024.93 974.691C1033.71 972.08 1043.68 968.929 1050.15 962.075C1045.36 971.482 1040.4 980.798 1035.24 989.987C1034.33 989.257 1033.3 988.657 1032.19 988.225C1027.55 986.41 1022.08 986.471 1016.9 986.529C1015.22 986.547 1013.57 986.566 1011.98 986.52C1003.1 986.262 994.222 986.07 985.337 985.909C977.633 985.771 969.912 985.714 962.19 985.618C972.398 983.933 982.691 982.62 993.064 981.152C1003.8 979.632 1014.52 977.784 1024.93 974.691ZM716.345 986.962C715.509 983.952 719.254 981.963 721.437 983.997C725.799 988.061 730.36 991.829 734.632 995.996L734.919 996.28C737.978 999.354 742.429 1005.28 738.45 1009.26C733.352 1014.35 726.253 1006.79 723.518 1002.85C720.049 997.848 717.968 992.809 716.345 986.962ZM468.864 1011.92C467.392 1011.59 465.759 1013.23 466.747 1014.67C468.611 1017.38 470.481 1020.37 472.756 1022.77C474.936 1025.06 477.845 1026.92 480.549 1028.7L481.693 1029.46C487.884 1033.63 494.979 1038.64 502.24 1040.59C506.154 1041.64 510.301 1039.87 512.394 1036.46C513.174 1035.18 513.415 1033.97 513.56 1032.57L513.622 1031.92C513.865 1029.11 511.797 1025.3 509.168 1024.15C502.591 1021.28 495.332 1020.09 488.536 1017.71C485.292 1016.57 482.122 1014.92 478.847 1013.92C475.649 1012.95 472.129 1012.63 468.864 1011.92ZM605.607 1040.7C609.957 1033.08 620.268 1026.27 629.266 1026.95C642.777 1027.96 645.534 1046.15 632.453 1050.49C624.634 1053.08 613.877 1050.42 607.037 1046.15C605.193 1045 604.517 1042.61 605.607 1040.7ZM1005.07 1050.65C1004.61 1048.36 1001.76 1047.52 999.904 1048.55C992.474 1052.68 987.25 1060.52 984.407 1068.39C983.323 1071.39 984.68 1074.67 986.659 1076.9C988.31 1078.77 990.442 1079.41 992.848 1079.47C995.885 1079.54 998.909 1077.76 1000.41 1075.13C1002.8 1070.94 1003.93 1067.12 1004.84 1062.41C1005.24 1060.37 1005.99 1058.09 1005.99 1056C1005.99 1054.26 1005.41 1052.36 1005.07 1050.65ZM1039.03 1061.72C1039.26 1060.69 1040.87 1060.7 1041.11 1061.72C1043.3 1071.05 1043.25 1081.09 1043.89 1090.64L1043.96 1091.7C1044.73 1102.25 1045.38 1112.82 1045.84 1123.37C1046.75 1144.15 1047.83 1164.93 1049.05 1185.68C1049.65 1195.98 1050.3 1206.27 1050.99 1216.56C1053.15 1215.36 1055.37 1214.3 1057.67 1213.37C1061.12 1211.97 1064.49 1211.82 1068.2 1211.85C1072.71 1211.9 1076.11 1215.87 1075.52 1220.3C1074.86 1225.12 1070.62 1227.18 1066.21 1226.49C1061.33 1225.73 1056.43 1224.55 1051.51 1224.06C1052.05 1232.01 1052.62 1239.97 1053.22 1247.91C1054.02 1258.44 1055.06 1268.95 1055.79 1279.48C1055.86 1280.49 1055.93 1281.49 1056.01 1282.5C1058.95 1280.97 1062.07 1280.19 1065.6 1279.23L1066.53 1278.97C1066.94 1278.85 1067.35 1278.73 1067.76 1278.61C1072.53 1277.2 1077.53 1275.73 1081.9 1278.91C1085.1 1281.23 1085.73 1285.05 1083.09 1288.11C1079.5 1292.26 1074.37 1291.98 1069.37 1291.71C1068.78 1291.67 1068.18 1291.64 1067.6 1291.62L1064.62 1291.51C1061.81 1291.4 1059.22 1291.22 1056.62 1290.51C1057.1 1297.37 1057.35 1304.25 1056.51 1311.01C1056.05 1314.67 1051.24 1315.62 1049.97 1311.9C1046.64 1302.16 1045.96 1291.65 1044.74 1281.45C1043.6 1271.93 1042.91 1262.33 1042.17 1252.76L1041.94 1249.89C1040.27 1228.83 1038.93 1207.77 1037.95 1186.67C1036.97 1165.58 1036.39 1144.49 1036.15 1123.37C1036.05 1113.79 1036.2 1104.17 1036.58 1094.58L1036.7 1091.7C1037.13 1081.85 1036.83 1071.38 1039.03 1061.72ZM1077.62 1093.91C1074.32 1091.97 1069.27 1095.25 1070.73 1099.2C1071.98 1102.56 1073.13 1106.19 1074.83 1109.36C1076.64 1112.72 1079.71 1115.84 1082.2 1118.72L1082.5 1119.06C1086.83 1123.92 1095.38 1130.57 1101.83 1125.36C1108.61 1119.9 1100.79 1110.47 1096.05 1106.66L1094.77 1105.65C1092.19 1103.56 1089.73 1101.28 1087.03 1099.35C1084.1 1097.26 1080.73 1095.74 1077.62 1093.91ZM877.701 1106.78C877.516 1105.68 878.317 1104.84 879.43 1105.05C885.857 1106.27 891.793 1109.37 897.312 1112.94C900.272 1114.85 903.127 1116.96 906.08 1118.89C909.728 1121.27 911.094 1123.25 911.633 1127.63C911.989 1130.52 909.29 1133.16 906.815 1133.95C900.07 1136.13 892.341 1128.99 887.771 1124.35L887.565 1124.15C882.781 1119.27 878.835 1113.5 877.701 1106.78ZM659.593 1110.5C656.927 1108.87 653.983 1112.06 655.424 1114.66C660.905 1124.57 667.838 1131.74 677.967 1136.87C682.512 1139.17 686.768 1137.67 689.743 1133.78C690.592 1132.67 690.776 1131.34 690.878 1130.01L690.918 1129.43C691.175 1125.65 688.056 1122.15 684.599 1121.14C676.057 1118.63 667.198 1115.14 659.593 1110.5ZM526.919 1173.49C528.32 1169.69 522.972 1168.28 520.921 1170.96C517.068 1176.01 512.214 1179.09 507.726 1183.45L507.352 1183.8C503.18 1187.74 497.228 1191.48 494.809 1196.64C492.825 1200.87 492.964 1205.76 496.433 1209.23C499.486 1212.28 505.311 1213.49 509.019 1210.85C520.513 1202.65 522.368 1185.83 526.919 1173.49ZM1001.31 1185.16C1004.97 1183.59 1014.51 1180.52 1017.34 1184.15C1017.47 1184.28 1017.58 1184.43 1017.67 1184.59C1018.37 1185.79 1018.47 1187.49 1017.67 1188.69C1014.38 1193.64 1010.95 1197.34 1006.26 1200.86L1005.74 1201.25C1000.64 1205 995.846 1209.4 989.632 1211.09C981.019 1213.44 975.003 1202.65 981.052 1196.36C985.925 1191.29 993.365 1188.65 999.822 1185.82L1001.31 1185.16ZM811.322 1203.27C814.813 1201.33 818.419 1205.94 815.582 1208.79L811.346 1213.03C807.415 1216.98 803.589 1220.97 800.224 1225.47L799.409 1226.57C794.867 1232.75 790.023 1239.91 782.581 1242.22C773.579 1245.01 764.928 1234.05 770.141 1226.04C774.695 1219.04 783.464 1216.4 791.024 1213.5C798.176 1210.76 804.636 1206.98 811.322 1203.27ZM872.602 1255.36C879.06 1254.46 884.649 1256.42 890.563 1258.5C891.057 1258.68 891.555 1258.85 892.055 1259.03L892.581 1259.21C899.172 1261.49 908.789 1263.06 912.167 1269.81C914.205 1273.87 912.622 1279.28 907.826 1280.48C901.422 1282.09 895.576 1278.39 890.135 1274.95C889.122 1274.31 888.124 1273.68 887.139 1273.1L886.809 1272.9C880.747 1269.35 874.49 1266.36 870.619 1260.24C869.586 1258.61 870.482 1255.66 872.602 1255.36ZM602.417 1279.85C600.812 1279.64 599.733 1281.32 599.605 1282.66C599.594 1282.77 599.583 1282.89 599.573 1283C599.404 1284.75 599.216 1286.69 599.682 1288.39C600.191 1290.23 601.568 1291.94 602.781 1293.46L603.579 1294.48C606.395 1298.03 609.517 1301.1 613.705 1303.02C619.018 1305.46 625.167 1304.14 627.614 1298.33C629.941 1292.81 626.879 1286.89 621.26 1285.1C618.265 1284.15 615.083 1283.54 612.164 1282.38C610.368 1281.66 608.814 1280.52 606.883 1280.2C605.42 1279.95 603.896 1280.05 602.417 1279.85ZM1018.59 1283.84C1017.61 1281.42 1014.5 1279.15 1011.87 1281.11C1004.45 1286.63 999.104 1297.56 999.389 1306.75C999.662 1315.57 1010.95 1318.44 1015.67 1311.16C1020.23 1304.14 1021.82 1291.79 1018.59 1283.84Z" clip-rule="evenodd"/><path fill="#fff" fill-rule="evenodd" d="M850.86 225.105C834.919 224.515 818.89 226.475 803.28 229.625C772.299 235.865 740.57 246.075 712.509 260.715C700.727 266.865 689.857 274.46 680.054 283.209C671.193 278.972 657.213 278.628 654.373 288.344C653.558 291.133 653.964 293.661 655.134 295.823C654.793 296.017 654.456 296.225 654.126 296.446C651.891 297.943 650.697 299.032 649.314 300.407L648.221 301.502C644.761 304.973 644.434 311.396 648.221 314.823L648.739 315.291L649.058 315.569C649.703 316.111 650.395 316.569 651.118 316.949C637.847 337.287 628.839 360.465 625.11 384.685C622.919 398.905 622.28 413.125 623.93 427.435C624.73 434.425 625.93 441.885 628.379 448.495C629.57 451.725 631.249 454.865 632.759 457.965C634.4 461.345 637.089 463.815 639.299 466.835C639.539 467.145 639.919 467.305 640.289 467.315C639.62 468.695 639.009 470.095 638.44 471.485C635.169 479.475 632.65 488.085 631.19 496.595C628.44 512.645 630.12 530.695 642.339 542.705C647.209 547.485 654.749 551.315 662.16 552.335C659.789 554.775 657.879 557.676 656.35 561.016C653.49 567.246 658.259 575.675 665.839 573.355C667.28 572.915 668.709 572.355 670.11 571.735C672.289 576.065 676.95 578.995 681.95 578.245C684.86 577.805 686.959 576.675 688.4 575.085C692.009 583.065 696.799 590.315 702.87 596.715C709.289 603.495 716.379 609.605 722.78 616.405C728.999 623.005 732.69 631.625 740.02 637.065C742.299 638.755 745.79 636.955 746.43 634.455C748.915 624.726 742.222 616.626 735.872 609.935L735.07 609.095C728.259 602.015 720.39 596.105 713.14 589.505C705.61 582.645 699.549 575.366 694.089 566.766C693.617 566.026 693.147 565.27 692.675 564.507L690.53 561.025C690.419 560.515 690.299 560.015 690.16 559.525C690.049 557.555 689.39 555.685 688.12 553.965C686.549 551.835 684.45 550.225 682.11 549.475C681.32 548.635 680.499 547.835 679.64 547.095C680.709 545.925 681.65 544.545 682.45 542.945C683.93 539.965 682.2 535.225 678.24 535.615C677.05 535.729 675.882 535.675 674.714 535.621C673.437 535.562 672.161 535.503 670.86 535.665C670.548 535.704 670.237 535.745 669.926 535.786C667.789 536.069 665.656 536.351 663.499 536.055C659.07 535.425 655.1 533.025 652.22 529.665C645.009 521.265 644.249 509.185 645.759 498.705C646.426 494.026 647.567 489.428 648.779 484.855L650.653 477.851C651.72 473.937 653.007 469.881 655.52 466.695C663.406 456.694 676.918 464.542 685.005 470.562L685.74 471.115C685.81 471.165 685.87 471.185 685.94 471.185C686.37 471.885 686.83 472.575 687.31 473.235C689.959 476.815 693.169 479.995 696.48 482.995L697.155 483.611C697.608 484.02 698.066 484.426 698.52 484.826C702.39 488.236 707.629 485.725 708.14 480.845C709.089 471.645 708.83 462.345 709.419 453.105C710.009 443.855 711.07 434.635 712.65 425.505C714.23 416.385 716.27 407.355 718.759 398.455C720.009 393.995 721.379 389.585 722.839 385.195C723.95 381.815 724.78 376.335 727.709 373.985C730.36 371.845 735.35 371.485 738.6 370.795C743.14 369.825 747.709 368.965 752.259 367.995C760.77 366.165 769.27 364.175 777.65 361.815C785.95 359.475 794.18 356.715 802.15 353.395C799.86 357.235 797.589 361.085 795.339 364.945C792.259 370.235 796.299 375.885 801.89 376.355C807.629 376.835 813.44 376.405 819.039 375.045C820.23 374.755 821.32 374.425 822.33 374.035C828.479 373.594 834.755 372.191 840.533 370.767L843.23 370.095C854.209 367.335 864.759 363.565 875.16 359.115C876.325 358.617 877.491 358.109 878.657 357.592C882.971 356.29 887.22 354.777 891.386 353.056C906.831 355.393 922.585 354.487 937.759 350.755C944.31 349.145 951.43 347.125 958.2 344.325C961.57 350.075 966.74 354.735 972.509 358.115C973.14 363.105 973.49 368.145 973.72 373.145C974.459 389.085 975.299 405.025 976.169 420.955L976.449 426.113C978.094 457.07 979.102 488.076 979.339 519.065C979.56 547.305 977.83 575.185 962.53 599.745C949.64 620.465 929.53 636.955 906.18 644.355C891.839 648.895 876.64 650.355 861.669 648.905C854.36 648.195 847.12 646.525 840.129 644.285L839.124 643.968C832.105 641.802 825.421 640.732 818.1 639.845C813.259 639.255 812.089 645.535 814.52 648.485C819.66 654.705 825.15 658.855 832.789 661.675C839.69 664.215 847.009 665.825 854.28 666.875C869.28 669.035 884.41 668.795 899.23 665.405C926.73 659.125 951.039 642.605 967.97 620.195C986.56 595.585 992.549 566.165 992.94 535.855C993.361 503.422 991.752 470.831 989.61 438.451L989.16 431.755C988.2 417.745 987.18 403.685 985.589 389.705C988.22 389.965 990.98 389.145 993.22 386.895C997.584 382.531 998.617 375.814 999.136 369.748L999.27 368.075C999.69 362.485 998.839 356.765 997.31 351.395C995.202 344.041 991.668 337.849 986.676 332.664C993.362 325.458 996.963 315.26 997.757 305.632C998.33 298.694 998.863 289.575 991.207 286.342C989.695 285.703 988.13 285.467 986.556 285.5C986.96 283.029 987.233 280.528 987.386 277.997C987.631 273.973 983.502 269.562 979.369 269.978C978.113 270.105 976.857 270.24 975.601 270.371C976.352 269.17 977.106 267.972 977.88 266.786C981.134 261.809 976.736 256.26 971.597 255.835C957.938 254.706 944.418 251.905 931.386 247.662C918.294 243.398 904.618 239.107 892.184 233.172C891.306 232.753 890.338 233.063 889.736 233.667C879.273 226.693 864.083 225.632 852.089 225.153L850.86 225.105ZM673.99 489.033C669.347 486.874 663.059 483.949 658.23 485.525C656.02 486.245 655.369 488.585 656.369 490.305H656.289L656.496 490.636C657.415 492.034 658.593 492.982 659.885 493.882L660.489 494.296C658.869 495.446 657.629 497.105 657.089 499.225C656.22 502.595 657.629 506.735 660.829 508.425C662.11 509.095 663.499 509.465 664.949 509.535C666.995 509.625 668.701 508.683 670.249 507.505L670.709 507.145C671.39 506.605 671.94 505.885 672.379 505.105C676.11 509.925 679.249 515.616 685.839 515.796C688.989 515.886 692.549 513.375 693.199 510.185C693.27 509.875 693.329 509.566 693.39 509.266C693.999 506.276 693.56 502.775 691.11 500.635C686.19 496.355 681.11 492.305 675.14 489.565C674.77 489.395 674.386 489.217 673.99 489.033Z" clip-rule="evenodd"/><path fill="#fff" fill-rule="evenodd" d="M927.63 398.473L926.193 398.179C924.503 397.841 922.804 397.984 921.311 398.591C919.847 399.187 918.572 400.224 917.68 401.721C916.495 403.714 916.337 405.386 916.887 407.595C917.311 409.302 918.242 410.586 919.46 411.514C920.744 412.491 922.37 413.061 924.06 413.259C931.854 414.175 939.53 415.89 946.992 418.323C950.488 419.464 953.788 421.01 957.058 422.613L959.877 424.002C962.477 425.274 965.163 426.499 968.557 427.389C968.824 427.458 969.087 427.524 969.349 427.587C970.29 427.291 970.45 426.933 970.649 426.673L970.73 426.572C970.972 426.268 971.271 425.803 970.988 423.631C963.583 408.271 943.267 401.742 927.63 398.473ZM830.588 402.83L832.465 402.502C838.273 401.497 845.494 400.532 849.603 405.201C851.782 407.677 852.532 412.279 849.603 414.649C845.767 417.754 841.63 417.651 837.218 417.542C835.704 417.504 834.158 417.466 832.581 417.556C827.493 417.848 822.603 418.69 817.702 420.091C806.95 423.164 798.189 428.774 789.006 434.934C787.801 435.742 786.571 434.201 787.146 433.074C792.447 422.691 802.72 414.162 813.01 408.963C818.502 406.188 824.512 403.886 830.588 402.83ZM816.963 448.146C817.798 437.79 833.57 435.438 835.139 445.686C836.544 454.866 834.89 463.299 830.755 471.564C826.804 479.46 816.874 475.776 816.123 468.586C815.381 461.484 815.907 457.248 816.443 452.933C816.634 451.392 816.827 449.841 816.963 448.146ZM946.205 439.826C942.401 438.715 939.226 440.681 937.027 443.561C936.773 443.893 936.566 444.222 936.38 444.548C929.515 450.856 932.101 463.645 937.501 470.049C940.814 473.976 948.145 472.845 950.413 468.385C954.587 460.172 958.09 443.299 946.205 439.826ZM915.748 517.039C923.872 505.66 912.366 494.957 904.814 490.367C902.836 488.947 904.406 484.243 908.634 484.97C947.031 491.567 927.136 557.708 878.112 521.413C872.275 516.704 879.343 506.334 885.634 510.366C885.953 510.611 886.288 510.869 886.636 511.139C893.704 516.603 906.636 526.601 915.748 517.039ZM880.587 586.926C873.864 584.184 867.866 579.61 863.481 573.766C861.957 571.735 861.561 569.589 861.881 567.627C862.241 565.421 863.546 563.422 865.326 562.08C867.111 560.735 869.345 560.072 871.504 560.41C873.381 560.704 875.248 561.731 876.727 563.862L877.035 564.288C879.642 567.815 883.04 570.708 886.91 572.574C890.641 574.372 894.814 575.211 899.132 574.723C907.356 573.794 913.024 569.346 919.049 563.306C919.796 562.544 920.543 561.757 921.294 560.958C921.768 560.234 922.426 559.768 923.157 559.524C923.968 559.253 924.886 559.268 925.726 559.562C926.537 559.845 927.262 560.381 927.747 561.094C928.209 561.772 928.471 562.61 928.386 563.574C927.835 569.833 924.562 575.419 919.914 579.805C914.752 584.677 907.909 588.047 901.466 589.229C894.368 590.531 887.136 589.598 880.587 586.926Z" clip-rule="evenodd"/></svg>