<svg xmlns="http://www.w3.org/2000/svg" width="1171" height="1098" fill="none" viewBox="0 0 1171 1098"><path fill="#fff" fill-rule="evenodd" d="M539.982 387.303C540.042 386.884 540.702 386.914 540.792 387.303C544.612 403.914 550.302 419.814 561.172 433.274C566.432 439.774 572.682 445.675 579.742 450.164C586.812 454.664 594.282 455.934 601.852 458.594C603.302 457.394 604.932 456.444 606.492 455.794C610.272 454.234 615.092 454.744 618.932 456.204C634.412 456.564 649.952 458.984 665.132 461.803C682.022 464.934 698.842 468.394 715.592 472.194C732.322 475.994 748.962 480.255 765.512 484.784L766.494 485.051C781.249 489.037 797.35 492.291 810.742 499.814C816.434 503.011 821.545 507.157 826.551 511.349L836.319 519.55L856.293 536.359C867.534 545.809 878.805 555.232 889.972 564.774C916.752 587.664 943.472 610.614 970.342 633.404C985.302 646.094 1000.26 658.784 1015.22 671.464C1022.57 677.704 1029.92 683.944 1037.27 690.175C1045.09 696.803 1053.4 703.133 1060.61 710.414C1063.25 713.074 1062.49 717.264 1059.48 719.224C1058.49 719.864 1057.52 720.524 1056.55 721.214C1067.33 728.633 1077.41 736.644 1087.08 745.734C1099.39 757.284 1111.45 769.184 1122.98 781.524C1134.47 793.824 1145.86 806.244 1157.05 818.814L1157.51 819.329C1162.38 824.828 1167.06 830.674 1169.42 837.714C1172 845.374 1170.84 853.244 1167.69 860.514C1161.68 874.335 1152.09 887.224 1143.8 899.755C1135.25 912.664 1126.33 925.294 1117.02 937.664C1097.92 963.014 1077.54 987.714 1055.05 1010.14C1030.55 1034.58 1003.92 1057.34 974.932 1076.29C968.042 1080.79 961.612 1069.73 968.492 1065.28C1018.13 1033.18 1059.73 989.425 1096.2 943.255C1114.41 920.204 1131.41 896.114 1147.28 871.394L1147.67 870.795C1151.56 864.794 1156.07 858.632 1157.96 851.684C1159.93 844.476 1156.92 838.197 1152.69 832.523L1152.2 831.883C1142.51 819.244 1131.09 807.633 1120.43 795.803L1115.32 790.128C1105.08 778.776 1094.81 767.441 1084.18 756.444C1077.78 749.835 1071.35 743.224 1064.83 736.744C1061.52 733.448 1058.39 729.966 1055.28 726.458L1052.96 723.824C1045.54 729.437 1038.59 735.987 1031.9 742.444L1027.48 746.724C1017.64 756.264 1008.34 766.335 999.582 776.883C987.932 790.904 977.492 805.744 967.972 821.184C968.352 821.474 968.722 821.764 969.102 822.064C969.432 822.324 969.722 822.624 969.962 822.944C977.933 827.044 985.287 832.369 992.602 837.557L994.692 839.034C1000.54 843.144 1006.38 847.274 1012.11 851.553C1012.32 851.707 1012.52 851.862 1012.73 852.019C1017.32 855.445 1022.56 859.355 1020.95 865.734C1020.26 868.484 1016.8 870.794 1013.98 869.694C1012.33 869.053 1011.2 868.204 1010.2 867.194C1007.6 873.898 1003.31 880.439 999.274 886.261L998.312 887.644C993.712 894.244 988.907 900.697 984.077 907.13L980.452 911.954C969.772 926.175 958.872 940.303 947.642 954.094C925.452 981.344 901.752 1007.49 875.412 1030.8C860.382 1044.11 844.732 1056.76 828.192 1068.15C819.452 1074.18 811.062 1059.81 819.862 1053.91C875.54 1016.59 918.986 963.964 961.993 913.18L968.074 906.009C974.357 898.616 980.691 891.251 987.252 884.114C993.362 877.464 1000.18 869.814 1007.97 864.774C1007.93 864.727 1007.89 864.68 1007.85 864.633L1007.59 864.344C1005.79 862.374 1003.54 860.744 1001.5 859.034C996.362 854.734 991.182 850.474 985.982 846.234C981.192 842.335 976.322 838.484 971.792 834.284C968.062 839.284 962.762 843.374 957.492 846.694L956.982 847.018C956.642 847.231 956.302 847.438 955.962 847.644C954.282 848.654 952.572 848.874 951.032 848.514H951.022L950.803 848.59C949.116 849.126 947.213 848.552 945.852 847.344C930.882 843.024 916.812 834.714 902.802 828.064C887.452 820.784 871.922 813.844 856.312 807.154C827.452 794.784 797.832 783.255 767.752 774.064C756.542 846.604 753.702 919.505 758.562 992.784C759.962 1013.72 761.332 1034.67 763.772 1055.52C764.962 1056.72 766.102 1057.95 766.932 1059.34C769.802 1064.12 768.742 1070.06 763.982 1073.3C759.37 1076.44 752.829 1076.44 746.999 1076.43C745.534 1076.43 744.115 1076.43 742.782 1076.47L739.439 1076.59C733.866 1076.75 728.284 1076.82 722.705 1076.87L709.504 1076.99C681.301 1077.21 653.092 1076.9 624.889 1076.5L589.523 1075.99C526.941 1075.1 464.318 1074.47 401.792 1077.76C382.462 1078.76 363.192 1080.37 343.912 1082.07C324.822 1083.75 305.632 1084.95 286.562 1082.41C280.212 1081.56 278.142 1076.13 279.662 1071.97C273.312 1073.77 266.322 1073.74 259.812 1074.24L258.309 1074.36C251.307 1074.86 244.481 1075 237.602 1073.13C235.732 1072.62 235.042 1069.57 237.022 1068.68C246.442 1064.44 256.542 1064.16 266.672 1063.32L269.309 1063.11C271.069 1062.96 272.829 1062.77 274.562 1062.41C274.819 1062.36 275.494 1062.12 276.317 1061.81L278.302 1061.04C278.012 1060.69 277.722 1060.33 277.442 1060.05C275.812 1058.43 274.102 1056.94 272.212 1055.62C263.112 1049.29 252.602 1047.26 242.492 1048.92C241.222 1050.65 239.462 1052.01 237.422 1052.57C235.542 1053.09 233.502 1052.9 231.632 1052.19C228.072 1053.78 224.662 1055.85 221.492 1058.37C220.992 1058.77 220.152 1058.27 220.542 1057.63C222.472 1054.47 224.772 1051.71 227.352 1049.36C225.192 1047.07 224.152 1043.9 225.492 1040.64C227.252 1036.36 229.782 1030.88 234.182 1028.71C234.062 1027.45 234.166 1026.12 234.325 1024.74L234.452 1023.69C235.002 1019.19 235.472 1014.68 235.922 1010.16C236.832 1001.14 237.492 992.104 237.892 983.053C238.702 964.934 238.392 946.803 237.702 928.694C236.292 891.974 231.882 855.414 226.422 819.104C226.032 816.524 225.642 813.934 225.262 811.354C225.222 812.085 225.012 812.835 224.672 813.633C222.932 817.764 219.102 821.844 216.242 825.284C210.555 832.095 203.707 837.305 196.643 842.462L192.791 845.264C189.523 847.648 186.325 850.145 183.562 853.104C180.752 856.114 179.432 859.744 177.212 863.104C174.742 866.864 171.112 869.414 166.489 869.294C162.829 869.196 159.259 867.272 155.939 865.245L152.829 863.324C151.199 864.814 148.889 865.494 146.099 864.553C144.499 864.014 142.899 863.464 141.299 862.894C140.069 865.784 136.249 870.61 135.329 871.589L135.209 871.704C132.869 873.914 130.209 875.784 127.369 877.324C127.579 877.344 127.789 877.425 127.939 877.585C139.509 889.216 146.079 906.093 152.439 921.102L153.109 922.675C159.239 937.024 164.969 951.548 170.639 966.085L176.412 980.922C182.239 995.889 188.037 1010.87 193.272 1026.05C196.282 1034.79 199.182 1043.56 202.142 1052.32C205.052 1060.95 208.862 1069.76 210.882 1078.62C212.422 1085.38 202.822 1090.09 199.302 1083.51C195.022 1075.52 192.152 1066.46 188.702 1058.07C185.172 1049.48 181.632 1040.88 178.112 1032.28C172.416 1018.35 167.259 1004.2 162.169 990.026L157.219 976.212C151.479 960.204 145.759 944.176 140.499 927.994C137.739 919.494 135.059 910.994 132.399 902.474L131.099 898.302C129.029 891.718 127.079 885.204 126.179 878.314C126.159 878.175 126.179 878.044 126.219 877.934C124.969 878.564 123.679 879.133 122.379 879.644C117.109 881.704 111.579 882.744 105.969 883.364L105.609 883.404C105.129 883.459 104.639 883.516 104.149 883.574C98.5489 884.235 92.7588 884.919 88.1888 881.194C86.0588 879.464 86.1188 875.303 88.1888 873.574C91.9988 870.378 96.9088 870.408 101.779 870.437C103.509 870.448 105.229 870.458 106.899 870.324C112.869 869.835 118.759 868.614 124.279 866.255C127.869 864.714 130.699 862.294 133.709 860.053C109.059 850.374 85.7589 836.314 70.9689 813.734C61.5789 799.373 58.5089 783.288 56.7289 766.541L56.5488 764.864C55.6188 755.734 55.4889 747.335 60.2589 739.154C65.2389 730.594 71.4988 722.585 77.0488 714.374C99.9988 680.454 122.819 646.454 145.639 612.454C156.939 595.604 167.709 578.364 179.142 561.604C184.142 554.274 189.462 546.454 196.312 540.734C203.042 535.114 210.712 531.044 218.452 527.014L222.409 524.961C240.881 515.39 259.437 506.002 278.272 497.154C282.052 495.374 286.072 493.364 290.262 491.364C297.162 487.194 305.492 484.384 312.862 481.324L314.351 480.709C321.809 477.644 329.438 474.744 337.172 472.484C342.942 470.794 349.832 471.484 352.802 476.614C357.842 472.934 362.252 468.553 366.322 463.784C371.252 458.024 375.362 451.444 378.472 444.524C380.082 440.954 381.302 437.204 382.382 433.434C383.312 430.194 383.602 426.774 385.112 423.744C385.452 423.064 386.652 423.014 386.972 423.744C389.773 430.08 388.024 438.951 386.284 445.658L385.952 446.914C383.702 455.324 379.802 463.204 374.642 470.204C369.692 476.925 363.392 482.675 356.522 487.384C359.812 497.484 362.522 507.734 366.482 517.664C370.512 527.794 374.972 538.585 383.072 546.175C397.082 559.309 420.129 559.376 438.989 559.43C440.421 559.434 441.83 559.438 443.208 559.448L446.348 559.477C490.8 559.835 538.133 552.357 571.842 520.894C580.272 513.024 586.942 504.034 592.542 493.984C595.672 488.364 598.552 482.594 601.762 477.024C602.842 475.154 603.902 473.284 605.052 471.505C604.772 471.664 604.472 471.803 604.152 471.925C593.944 475.912 582.832 469.975 574.609 463.827L573.982 463.354C565.932 457.214 559.102 449.574 553.562 441.114C543.412 425.624 537.182 405.925 539.982 387.303ZM308.358 693.961C291.328 693.847 274.281 693.732 257.322 692.564C257.292 693.294 257.272 694.014 257.252 694.744C264.982 693.624 273.332 695.344 280.582 697.904C288.182 700.585 295.842 703.904 303.972 704.494C311.562 705.044 318.462 702.494 325.242 699.374L328.109 698.059C330.98 696.748 333.859 695.46 336.762 694.335C336.642 694.335 336.522 694.324 336.402 694.324L333.365 694.253C325.042 694.073 316.702 694.017 308.358 693.961ZM371.342 695.534C373.212 695.604 375.082 695.684 376.952 695.764C383.872 696.064 390.792 696.404 397.712 696.794C399.051 696.867 400.476 697.034 401.937 697.205C405.702 697.646 409.706 698.116 413.092 697.064C413.212 697.544 413.372 698.005 413.582 698.454C412.872 701.994 412.432 705.654 412.162 709.354C407.822 709.824 403.412 709.664 399.132 708.774C388.862 706.644 380.522 700.164 371.342 695.534ZM296.042 711.534C283.372 708.244 270.392 699.614 257.122 699.154C256.862 707.794 256.672 716.434 256.622 725.053C261.152 721.434 267.772 720.104 273.772 721.154C279.488 722.149 284.989 725.302 290.499 728.46C298.772 733.201 307.066 737.955 316.142 735.434C322.882 733.553 328.452 728.704 334.212 724.954C339.972 721.204 346.562 718.133 353.532 717.854C360.012 717.585 365.792 720.394 370.222 725.014C375.042 730.044 378.342 736.154 385.362 738.434C392.628 740.785 398.909 738.281 405.003 734.471L405.692 734.034C407.612 732.794 409.632 731.434 411.732 730.234C411.735 729.116 411.734 727.991 411.734 726.857V726.848C411.733 724.022 411.732 721.165 411.782 718.303C399 719.367 387.852 715.1 376.904 708.867L375.752 708.204C369.742 704.704 363.562 700.835 356.572 699.694C349.402 698.534 342.452 701.085 335.982 703.925L334.355 704.642C321.747 710.2 310.195 715.207 296.042 711.534ZM343.082 730.574C346.852 728.585 351.442 726.734 355.802 727.314C359.962 727.863 362.734 730.685 365.296 733.701L366.683 735.353C371.266 740.774 375.777 745.333 382.842 747.564C390.162 749.864 397.922 748.964 404.732 745.594C407.152 744.394 409.402 742.904 411.662 741.434L411.542 757.383C407.022 759.633 402.422 761.664 397.372 762.894C388.052 765.164 380.132 763.484 372.162 758.344L371.325 757.799C365.322 753.857 359.167 749.164 351.752 748.724C344.516 748.291 339.085 752.303 334.32 757.213L333.762 757.794C327.752 764.133 321.682 767.224 312.742 766.494C304.075 765.786 295.963 761.959 288.023 758.662L287.302 758.364C280.042 755.383 271.672 752.314 263.702 753.454C261.792 753.724 259.322 754.314 257.122 755.344C256.802 747.883 256.652 740.414 256.622 732.934C261.152 729.005 268.202 728.354 273.872 729.964C282.752 732.484 290.022 738.984 298.502 742.514C306.022 745.644 313.862 746.344 321.532 743.383C329.452 740.324 335.662 734.494 343.082 730.574ZM358.332 761.074C355.552 759.524 352.322 758.014 349.052 758.644C345.668 759.301 343.224 761.975 340.939 764.406L340.182 765.204C334.972 770.604 329.312 774.544 321.772 775.755C313.632 777.064 305.182 775.544 297.552 772.624C289.502 769.553 281.932 765.274 273.802 762.404C270.082 761.094 265.892 759.835 261.902 759.854C260.232 759.864 258.782 760.244 257.382 760.764C257.772 768.335 258.352 775.894 259.152 783.454C269.326 778.127 282.556 783.456 292.748 788.138L294.622 789.005C302.672 792.744 310.502 795.564 319.512 794.734C328.033 793.95 334.638 789.934 341.449 785.313L343.242 784.089C349.2 780.051 356.169 776.498 363.562 778.324C370.792 780.104 376.322 785.803 383.532 787.914C390.602 789.984 398.212 790.204 405.392 788.564C407.412 788.094 409.392 787.505 411.322 786.774C411.372 780.704 411.422 774.633 411.462 768.564C401.202 772.914 389.902 775.204 379.572 772.544C371.542 770.474 365.422 765.005 358.332 761.074ZM56.6389 766.624C56.8089 765.865 55.8988 765.284 55.3088 765.855C45.3388 775.464 38.2988 787.744 30.5688 799.124C23.2088 809.964 15.1989 820.384 9.70886 832.345C4.60886 843.464 1.31887 854.744 0.338867 866.964C-0.641133 879.095 0.628921 891.255 2.76892 903.204C6.97892 926.744 15.9789 949.034 25.8589 970.685C35.4689 991.732 46.3188 1012.18 57.7788 1032.26L61.8889 1039.42C66.8989 1048.15 71.9689 1056.86 77.3889 1065.32C84.1389 1075.84 90.2989 1086.69 99.1989 1095.47C105.519 1101.72 117.429 1095.48 114.549 1086.54C113.299 1082.66 112.319 1078.99 110.379 1075.38C108.909 1072.63 107.249 1069.96 105.689 1067.26C102.569 1061.84 99.4789 1056.39 96.3589 1050.97C89.8089 1039.58 82.9088 1028.4 76.4188 1016.97C65.1588 997.155 54.5289 976.964 45.1289 956.185L44.0288 953.732C35.3788 934.49 27.1789 914.559 23.3789 893.744C19.3789 871.815 22.9589 851.145 30.7489 830.534C34.7789 819.874 39.3089 809.454 44.0189 799.074L44.9288 797.091C49.4788 787.184 54.2989 777.33 56.6389 766.624ZM349.09 791.753L350.295 790.977C353.473 788.949 357.118 786.848 361.012 787.594C364.492 788.264 367.482 791.034 370.512 792.744C377.162 796.494 384.622 798.544 392.232 799.064C398.562 799.494 405.132 798.724 411.222 796.844L411.012 816.505C408.782 817.214 406.472 817.724 404.042 817.904C396.662 818.454 389.462 816.684 383.272 812.614L380.141 810.535C374.782 807.014 369.754 804.22 362.662 805.505C355.642 806.784 349.752 811.284 344.012 815.204L343.071 815.836C336.479 820.188 329.797 822.997 321.712 823.064C312.982 823.133 304.352 820.704 296.222 817.714C288.152 814.755 280.482 811.204 271.852 810.114C269.212 809.784 265.992 809.684 262.962 810.204C262.562 807.974 262.182 805.755 261.822 803.524C261.042 798.734 260.372 793.954 259.792 789.164C269.91 786.441 279.517 791.34 288.974 796.162C293.826 798.636 298.64 801.09 303.462 802.484C311.712 804.864 320.692 804.835 328.942 802.534C336.576 800.404 342.577 795.982 349.09 791.753ZM351.42 822.241L350.342 822.974C343.692 827.434 337.022 831.053 328.992 832.214C320.762 833.404 312.412 832.383 304.422 830.234C296.262 828.044 288.682 824.294 280.932 821.005C276.832 819.264 272.692 817.704 268.292 816.894C266.892 816.633 265.512 816.564 264.152 816.564C264.222 816.954 264.302 817.354 264.382 817.744C265.152 821.644 265.352 827.204 267.702 830.524C269.862 833.585 274.502 835.324 277.602 837.144L277.962 837.354L278.773 837.36C281.207 837.402 283.656 837.676 286.032 838.144C291.169 839.146 296.223 841.237 301.291 843.333C310.441 847.119 319.638 850.923 329.452 848.374C341.892 845.154 351.722 835.484 364.732 833.814C371.642 832.925 377.952 834.803 384.202 837.614L386.392 838.595C389.638 840.04 392.725 841.358 395.932 842.454C400.872 840.335 405.812 838.234 410.782 836.184L410.882 827.303C404.312 828.664 397.312 828.454 391.202 827.044C387.522 826.194 383.892 824.784 380.592 822.944C377.312 821.124 374.582 818.394 371.252 816.704C364.466 813.261 357.794 817.854 352.121 821.759C351.886 821.921 351.652 822.082 351.42 822.241ZM366.782 843.094C372.782 842.675 378.182 845.154 383.542 847.794C380.522 849.104 377.502 850.404 374.482 851.694L354.382 860.274C347.742 863.104 340.712 865.564 334.402 869.053C333.952 869.303 333.592 869.604 333.322 869.954C326.762 865.755 319.822 862.005 313.172 858.014C311.652 857.104 310.122 856.194 308.592 855.284C316.512 857.934 324.632 859.264 333.232 856.774C344.702 853.464 354.662 843.944 366.782 843.094Z" clip-rule="evenodd"/><path fill="#fff" fill-rule="evenodd" d="M432.982 0.10508C448.923 -0.48492 464.952 1.47508 480.562 4.62508C511.543 10.8651 543.272 21.0751 571.333 35.7151C583.115 41.8651 593.985 49.4601 603.788 58.2091C612.649 53.9721 626.629 53.6281 629.469 63.3441C630.284 66.1331 629.878 68.6611 628.708 70.8231C629.049 71.0171 629.386 71.2251 629.716 71.4461C631.951 72.9429 633.144 74.032 634.528 75.4067L635.621 76.5021C639.081 79.9731 639.408 86.3961 635.621 89.8231L635.103 90.2911L634.784 90.5691C634.139 91.111 633.446 91.5694 632.724 91.9491C645.995 112.287 655.003 135.465 658.732 159.685C660.923 173.905 661.562 188.125 659.912 202.435C659.112 209.425 657.912 216.885 655.463 223.495C654.272 226.725 652.593 229.865 651.083 232.965C649.442 236.345 646.753 238.815 644.543 241.835C644.303 242.145 643.923 242.305 643.553 242.315C644.222 243.695 644.833 245.095 645.402 246.485C648.673 254.475 651.192 263.085 652.652 271.595C655.402 287.645 653.722 305.695 641.503 317.705C636.633 322.485 629.093 326.315 621.682 327.335C624.053 329.775 625.963 332.676 627.492 336.016C630.352 342.246 625.583 350.675 618.003 348.355C616.562 347.915 615.133 347.355 613.732 346.735C611.553 351.065 606.892 353.995 601.892 353.245C598.982 352.805 596.883 351.675 595.442 350.085C591.833 358.065 587.043 365.315 580.972 371.715C574.553 378.495 567.463 384.605 561.062 391.405C554.843 398.005 551.152 406.625 543.822 412.065C541.543 413.755 538.052 411.955 537.412 409.455C534.927 399.726 541.62 391.626 547.97 384.935L548.772 384.095C555.583 377.015 563.452 371.105 570.702 364.505C578.232 357.645 584.293 350.366 589.753 341.766C590.224 341.026 590.695 340.27 591.166 339.507L593.312 336.025C593.423 335.515 593.543 335.015 593.682 334.525C593.793 332.555 594.452 330.685 595.722 328.965C597.293 326.835 599.392 325.225 601.732 324.475C602.522 323.635 603.343 322.835 604.202 322.095C603.133 320.925 602.192 319.545 601.392 317.945C599.912 314.965 601.642 310.225 605.602 310.615C606.791 310.729 607.96 310.675 609.128 310.621C610.405 310.562 611.681 310.503 612.982 310.665C613.293 310.704 613.605 310.745 613.916 310.786C616.053 311.069 618.186 311.351 620.343 311.055C624.772 310.425 628.742 308.025 631.622 304.665C638.833 296.265 639.593 284.185 638.083 273.705C637.415 269.026 636.275 264.428 635.063 259.855L633.189 252.851C632.121 248.937 630.835 244.881 628.322 241.695C620.436 231.694 606.924 239.542 598.836 245.562L598.102 246.115C598.032 246.165 597.972 246.185 597.902 246.185C597.472 246.885 597.012 247.575 596.532 248.235C593.883 251.815 590.673 254.995 587.362 257.995L586.687 258.611C586.233 259.02 585.776 259.426 585.322 259.826C581.452 263.236 576.213 260.725 575.702 255.845C574.753 246.645 575.012 237.345 574.423 228.105C573.833 218.855 572.772 209.635 571.192 200.505C569.612 191.385 567.572 182.355 565.083 173.455C563.833 168.995 562.463 164.585 561.003 160.195C559.892 156.815 559.062 151.335 556.133 148.985C553.482 146.845 548.492 146.485 545.242 145.795C540.702 144.825 536.133 143.965 531.583 142.995C523.072 141.165 514.572 139.175 506.192 136.815C497.892 134.475 489.662 131.715 481.692 128.395C483.982 132.235 486.253 136.085 488.503 139.945C491.583 145.235 487.543 150.885 481.952 151.355C476.213 151.835 470.402 151.405 464.803 150.045C463.612 149.755 462.522 149.425 461.512 149.035C455.363 148.594 449.087 147.191 443.309 145.767L440.612 145.095C429.633 142.335 419.083 138.565 408.682 134.115C407.517 133.617 406.351 133.109 405.185 132.592C400.871 131.29 396.622 129.777 392.456 128.056C377.011 130.393 361.257 129.487 346.083 125.755C339.532 124.145 332.412 122.125 325.642 119.325C322.272 125.075 317.102 129.735 311.333 133.115C310.702 138.105 310.352 143.145 310.122 148.145C309.383 164.085 308.543 180.025 307.673 195.955L307.393 201.113C305.748 232.07 304.74 263.076 304.503 294.065C304.282 322.305 306.012 350.185 321.312 374.745C334.202 395.465 354.312 411.955 377.662 419.355C392.003 423.895 407.202 425.355 422.173 423.905C429.482 423.195 436.722 421.525 443.713 419.285L444.718 418.968C451.737 416.802 458.421 415.732 465.742 414.845C470.583 414.255 471.753 420.535 469.322 423.485C464.182 429.705 458.692 433.855 451.053 436.675C444.152 439.215 436.833 440.825 429.562 441.875C414.562 444.035 399.432 443.795 384.612 440.405C357.112 434.125 332.803 417.605 315.872 395.195C297.282 370.585 291.293 341.165 290.902 310.855C290.481 278.422 292.09 245.831 294.232 213.451L294.682 206.755C295.642 192.745 296.662 178.685 298.253 164.705C295.622 164.965 292.862 164.145 290.622 161.895C286.258 157.531 285.225 150.814 284.706 144.748L284.572 143.075C284.152 137.485 285.003 131.765 286.532 126.395C288.64 119.041 292.174 112.849 297.166 107.664C290.48 100.458 286.879 90.2601 286.085 80.6321C285.512 73.6941 284.979 64.5751 292.635 61.3421C294.147 60.7031 295.712 60.4671 297.286 60.5001C296.882 58.0291 296.609 55.5281 296.456 52.9971C296.211 48.9731 300.34 44.5621 304.473 44.9781C305.729 45.1051 306.985 45.2401 308.241 45.3711C307.49 44.1701 306.736 42.9721 305.962 41.7861C302.708 36.8091 307.106 31.2601 312.245 30.8351C325.904 29.7061 339.424 26.9051 352.456 22.6621C365.548 18.3981 379.224 14.1071 391.658 8.17208C392.536 7.75308 393.504 8.06308 394.106 8.66708C404.569 1.69258 419.759 0.632179 431.753 0.152815L432.982 0.10508ZM609.852 264.033C614.495 261.874 620.783 258.949 625.611 260.525C627.822 261.245 628.472 263.585 627.472 265.305H627.553L627.345 265.636C626.427 267.034 625.248 267.982 623.956 268.882L623.352 269.296C624.972 270.446 626.213 272.105 626.753 274.225C627.622 277.595 626.213 281.735 623.012 283.425C621.731 284.095 620.343 284.465 618.893 284.535C616.847 284.625 615.14 283.683 613.592 282.505L613.132 282.145C612.451 281.605 611.901 280.885 611.463 280.105C607.731 284.925 604.592 290.616 598.003 290.796C594.852 290.886 591.292 288.375 590.643 285.185C590.572 284.875 590.512 284.566 590.451 284.266C589.842 281.276 590.282 277.775 592.732 275.635C597.651 271.355 602.731 267.305 608.701 264.565C609.072 264.395 609.456 264.217 609.852 264.033Z" clip-rule="evenodd"/><path fill="#fff" fill-rule="evenodd" d="M356.212 173.473L357.649 173.179C359.339 172.841 361.038 172.984 362.531 173.591C363.995 174.187 365.27 175.224 366.162 176.721C367.347 178.714 367.505 180.386 366.955 182.595C366.531 184.302 365.6 185.586 364.382 186.514C363.098 187.491 361.472 188.061 359.782 188.259C351.988 189.175 344.312 190.89 336.85 193.323C333.354 194.464 330.054 196.01 326.784 197.613L323.965 199.002C321.365 200.274 318.679 201.499 315.285 202.389C315.018 202.458 314.755 202.524 314.493 202.587C313.552 202.291 313.392 201.933 313.193 201.673L313.112 201.572C312.87 201.268 312.571 200.803 312.854 198.631C320.259 183.271 340.575 176.742 356.212 173.473ZM453.254 177.83L451.377 177.502C445.569 176.497 438.347 175.532 434.239 180.201C432.06 182.677 431.31 187.279 434.239 189.649C438.075 192.754 442.212 192.651 446.624 192.542C448.137 192.504 449.684 192.466 451.261 192.556C456.349 192.848 461.239 193.69 466.14 195.091C476.892 198.164 485.653 203.774 494.836 209.934C496.041 210.742 497.271 209.201 496.696 208.074C491.395 197.691 481.122 189.162 470.832 183.963C465.34 181.188 459.33 178.886 453.254 177.83ZM466.879 223.146C466.044 212.79 450.272 210.438 448.703 220.686C447.298 229.866 448.952 238.299 453.087 246.564C457.038 254.46 466.968 250.776 467.719 243.586C468.461 236.484 467.935 232.248 467.399 227.933C467.208 226.392 467.015 224.841 466.879 223.146ZM337.637 214.826C341.441 213.715 344.616 215.681 346.815 218.561C347.069 218.893 347.276 219.222 347.462 219.548C354.327 225.856 351.741 238.645 346.341 245.049C343.028 248.976 335.697 247.845 333.429 243.385C329.255 235.172 325.752 218.299 337.637 214.826ZM368.094 292.039C359.97 280.66 371.476 269.957 379.028 265.367C381.006 263.947 379.436 259.243 375.208 259.97C336.811 266.567 356.706 332.708 405.73 296.413C411.566 291.704 404.498 281.334 398.208 285.366C397.889 285.611 397.554 285.869 397.205 286.139C390.138 291.603 377.206 301.601 368.094 292.039ZM403.255 361.926C409.978 359.184 415.975 354.61 420.361 348.766C421.885 346.735 422.28 344.589 421.961 342.627C421.601 340.421 420.296 338.422 418.516 337.08C416.73 335.735 414.497 335.072 412.337 335.41C410.461 335.704 408.593 336.731 407.115 338.862L406.806 339.288C404.199 342.815 400.802 345.708 396.931 347.574C393.201 349.372 389.028 350.211 384.71 349.723C376.486 348.794 370.818 344.346 364.793 338.306C364.046 337.544 363.299 336.757 362.548 335.958C362.074 335.234 361.416 334.768 360.685 334.524C359.874 334.253 358.956 334.268 358.116 334.562C357.305 334.845 356.58 335.381 356.095 336.094C355.633 336.772 355.371 337.61 355.456 338.574C356.007 344.833 359.28 350.419 363.928 354.805C369.09 359.677 375.933 363.047 382.376 364.229C389.474 365.531 396.706 364.598 403.255 361.926Z" clip-rule="evenodd"/></svg>