<svg width="118" height="90" viewBox="0 0 118 90" fill="none" xmlns="http://www.w3.org/2000/svg">
<path d="M28.5012 7.24648C20.4262 12.5925 7.7682 23.6505 1.7182 30.0955C3.2092 30.3035 4.7862 29.1385 6.4692 28.9165L18.1042 25.7245C13.2712 29.8755 3.1032 37.1945 0.158203 42.9585C3.7902 41.6495 11.4122 37.2595 15.2012 36.8995C11.8922 39.9375 4.9872 45.7005 2.8232 49.3685C3.0842 49.4925 2.9032 49.8135 2.9432 50.0375C5.7892 48.4025 12.7062 44.1275 15.8432 43.8385C12.6142 47.3225 6.6742 54.0315 5.3732 58.5265C8.1772 56.6135 15.2292 52.7345 18.3172 51.5575C17.6142 53.3305 16.0552 54.6475 15.0412 56.4215C13.6422 58.8745 10.3302 61.6675 10.2072 64.5825C12.6672 62.2075 15.7172 60.1085 18.7782 58.4345C17.4132 61.3815 14.9022 63.8185 14.2172 67.3265C16.2242 65.3065 20.0302 64.2555 22.6162 63.3215L22.3042 63.6325C22.0802 63.8235 19.1682 65.9675 17.1832 68.3595C18.9482 68.2455 17.6322 68.0255 19.8902 68.5395L19.8472 68.6535C19.6932 82.1475 45.3482 87.0805 61.0712 86.3965C64.3852 79.9775 62.5962 69.6075 71.1592 65.1495C76.9232 62.0825 77.5752 60.4075 84.2272 61.6585C87.8232 62.3325 95.6882 65.0505 99.4542 64.1925C102.968 62.1595 104.675 61.2645 107.786 58.8225C110.796 54.2485 83.7982 39.4245 105.622 58.6515C110.858 59.7725 112.21 59.6055 113.761 57.2755C114.454 55.3955 116.109 50.3985 117.62 47.1425L117.727 45.3825C116.26 40.9685 116.616 33.4175 115.875 32.3295C111.033 25.6165 93.5352 24.5655 85.6192 15.7335C86.9692 11.3495 84.1372 7.73648 81.2522 4.99548C76.9202 1.80848 70.9392 3.27348 66.3272 4.59648C61.0722 3.49748 56.2102 1.61048 51.0942 0.116483C39.7172 -1.07352 28.5012 7.24648 28.5012 7.24648Z" fill="black"/>
<path d="M61.8529 10.9806L58.0819 12.4186C57.6289 11.5176 58.7579 10.6616 59.2079 9.81964C59.5299 9.20364 60.4549 8.85864 60.6729 8.11464C55.7959 7.32864 51.1869 4.93664 45.9849 5.76064C40.4219 6.63864 37.1829 8.76364 33.9799 11.3006C32.3629 12.1856 31.5839 13.4426 30.0119 14.5016C28.0919 16.2306 27.2569 19.6776 26.7789 20.3346C29.5639 19.1286 32.3659 19.3086 34.2579 18.6716C27.1429 23.1186 25.8999 31.8056 27.8679 39.0516L27.7519 39.2106C25.3609 37.7816 24.6689 35.1456 24.0069 32.8396C23.5359 34.3546 23.4689 36.2796 23.1479 37.9716C22.3839 37.2586 21.9639 36.2376 21.5379 35.3276C20.7389 42.9956 24.4759 49.2406 29.0589 55.2936C32.1269 59.3516 26.1359 62.0376 27.5469 67.1316L34.7529 66.7276C35.6819 66.3796 35.3929 66.5046 35.3929 66.5046C33.5869 70.1176 24.0279 72.8566 22.1919 74.9216C22.7049 75.3466 31.1089 72.7576 34.1829 72.2346L25.1379 77.3466C26.0369 77.6236 25.1099 80.6576 27.0839 80.3696C39.5919 84.0826 53.6809 89.2356 55.8759 83.8576C57.7069 80.4386 60.4169 74.6476 59.9979 71.3676L61.9389 68.4186C59.3489 69.0616 56.7399 70.1096 54.7369 72.2416C54.1379 70.9856 55.0789 69.4786 55.5469 68.2906C56.8899 65.8806 59.5729 64.6046 61.6979 63.2346L57.2339 61.2586C54.9839 57.3946 50.7109 54.2116 50.5949 49.6726L51.6519 50.0326C55.7209 54.6536 61.5059 58.4036 67.2989 58.6716C63.3559 58.3336 83.7699 55.9286 82.5699 54.1996C84.7399 57.3206 91.2989 58.6316 96.0899 60.2706C98.2909 59.4786 99.2519 59.7046 100.906 58.2136C100.201 57.4486 99.1109 56.8236 98.0619 56.4266C91.7669 54.6886 76.8999 51.6306 73.6969 45.4406C73.0929 48.0776 75.5349 50.2526 78.2629 52.5016L72.3899 51.6756C62.0589 46.8936 63.3069 38.6916 65.5769 30.8956L66.3619 37.4036L68.3869 40.9516C72.2379 33.9856 70.2219 34.8516 62.4889 25.4576L68.3209 27.6856C70.9839 29.8276 75.3609 33.5306 79.2419 36.1026C89.6949 42.9476 94.8669 47.4836 108.133 48.4136L112.225 49.3216C115.121 41.7316 109.506 34.7246 111.204 45.3326C109.038 42.7016 106.921 40.2666 107.362 38.8936C106.602 37.7466 110.505 34.8796 110.173 33.5746C106.343 29.6806 89.7839 27.5906 80.7919 18.6676C80.5279 20.1596 84.9499 24.0216 85.7159 25.3506C76.7979 25.4386 71.5419 22.6996 70.5889 19.8086C70.3939 19.3276 70.6359 17.1856 71.5869 16.4956C72.8739 15.8236 74.1279 14.8026 75.6069 14.6656C73.2909 12.7746 70.3569 15.3086 68.3049 16.4536C66.7109 19.1906 69.1939 22.2416 69.5069 24.4676C67.3319 23.9186 64.3959 20.0896 64.0359 17.6856C60.7299 18.0476 57.6959 17.6206 55.1549 15.7116C57.3979 15.2196 59.7149 14.3806 62.0609 13.9566C68.2039 12.6166 74.6589 6.30164 80.8639 11.2366L77.9749 7.56464C72.1839 6.95464 67.1479 9.64264 61.8529 10.9806Z" fill="#FF1A00"/>
<path d="M41.5893 13.7596C39.9403 15.6836 38.2873 17.6096 37.9023 20.1966L38.2713 20.6306C39.3733 19.3046 41.0243 18.1936 42.5453 17.4236C42.5473 20.1496 44.3053 22.8226 46.6553 24.1366L47.0503 24.1646C46.5523 21.2856 46.8843 17.7656 48.0103 15.1666C49.8033 13.6586 52.1613 13.0606 53.6783 11.4746C49.8813 10.5866 46.2673 11.3386 43.0203 12.5746L41.5893 13.7596Z" fill="black"/>
<path d="M79.7151 21.7713C78.1541 19.6143 75.9381 17.8833 73.1211 18.1293C73.1501 20.7913 76.7791 22.3433 79.7151 21.7713Z" fill="white"/>
<path d="M57.1896 22.1156C54.7446 22.3026 52.4536 22.7376 50.1486 23.3396C51.1656 24.2766 52.4506 24.5916 53.4146 25.4686C50.3976 26.6056 47.2386 27.3296 44.6016 29.6546L45.1476 29.9796C50.0256 28.9646 55.7926 29.0506 60.8796 30.1396L61.1736 29.9276L58.2256 24.5666L62.7586 23.5856C60.3536 21.3366 57.6026 19.1256 54.4366 18.1636C54.9206 19.4716 56.2526 20.7796 57.1896 22.1156Z" fill="black"/>
<path d="M74.8992 27.4896C77.3052 27.9346 79.9632 27.9926 82.2562 27.5636C78.4692 25.6316 73.6312 26.0116 70.6172 22.6196C71.1872 24.3996 72.4212 27.2686 74.8992 27.4896Z" fill="black"/>
<path d="M38.9033 41.1284C39.8463 44.1514 36.6733 47.8354 39.2153 50.6134C41.3803 53.1354 44.0253 55.2274 46.5693 57.0774L46.3443 56.1344C44.0783 53.4874 41.9953 50.5654 40.9483 47.4184C43.6043 48.3464 46.4113 49.6344 49.4443 50.0644C46.0283 44.9604 39.7663 40.0804 42.1253 33.0944C42.2543 31.9404 43.7803 31.0534 43.3963 29.9814C39.8263 32.7084 38.3323 36.7354 38.9033 41.1284Z" fill="black"/>
<path d="M85.7476 45.0703C85.4136 45.6593 85.5346 46.5203 85.4316 47.2443C86.1696 46.8653 86.6956 46.0453 87.4316 45.7263C87.2186 45.2883 86.2696 45.2863 85.7476 45.0703Z" fill="white"/>
<path d="M90.0742 49.5847L91.5922 48.0977C91.2562 47.8307 90.8072 47.4367 90.1972 47.5797L90.0742 49.5847Z" fill="white"/>
<path d="M93.6523 51.1876C94.0073 51.2136 94.8263 49.5446 95.1833 49.5696L93.9803 48.8586C93.5653 48.8326 93.7913 50.8936 93.6523 51.1876Z" fill="white"/>
<path d="M97.3479 51.9446L96.9629 52.8946C97.7989 52.8276 98.2269 51.2106 98.7289 50.7566C97.3379 50.4776 97.2849 50.0936 97.3479 51.9446Z" fill="white"/>
<path d="M101.312 54.1346L102.811 51.5656L101.415 51.2456L101.312 54.1346Z" fill="white"/>
<path d="M105.137 53.6904L106.852 52.3785C105.125 51.7005 105.027 51.4474 105.137 53.6904Z" fill="white"/>
<path d="M109.273 52.6505C109.527 53.3985 109.293 54.2975 109.242 55.0865C109.646 54.3205 110.574 53.7735 110.687 52.8655C110.292 52.5335 109.747 52.6825 109.273 52.6505Z" fill="white"/>
<path d="M57.7346 81.3216C58.2816 82.3526 58.3066 83.6066 58.8536 84.6366C60.1486 81.8436 60.0006 78.4886 58.3206 75.9776C55.3976 74.6896 52.5756 73.3526 50.0566 71.3066C51.1036 74.8776 54.5276 78.8136 57.7346 81.3216Z" fill="black"/>
<path d="M75.7221 22.0754C74.7691 21.8274 74.2121 20.7584 74.4721 19.6824C74.7401 18.6034 75.7241 17.9324 76.6791 18.1804C77.6341 18.4254 78.1911 19.4984 77.9291 20.5734C77.6631 21.6484 76.6751 22.3214 75.7221 22.0754Z" fill="black"/>
<path d="M56.6912 88.4617L59.5262 86.1516C56.7682 84.3606 52.1002 81.1476 49.5762 78.7646C51.5592 82.8896 51.6192 87.4527 56.6912 88.4617Z" fill="black"/>
<path d="M16.1953 70.0226C27.7473 85.1976 43.4573 91.2126 62.6073 89.5646L60.9783 86.0226C43.9473 86.6536 29.7683 82.4306 20.1033 68.4346L16.1953 70.0226Z" fill="black"/>
</svg>
