<svg width="118" height="90" viewBox="0 0 118 90" fill="none" xmlns="http://www.w3.org/2000/svg">
<path d="M28.9152 7.87185L28.9319 7.86079L28.9478 7.84899L28.9479 7.84895L28.948 7.84885L28.9488 7.8483L28.9536 7.84477L28.9752 7.82894C28.995 7.81457 29.0253 7.79263 29.0658 7.76368C29.1469 7.70578 29.2689 7.61983 29.429 7.51017C29.7495 7.29081 30.2224 6.97678 30.8264 6.60267C32.0351 5.85403 33.7646 4.86721 35.8431 3.91738C39.9988 2.01831 45.4753 0.301484 50.9494 0.855539C52.6312 1.34802 54.3071 1.8904 55.9909 2.43532C59.3192 3.5125 62.6782 4.59958 66.1737 5.3306L66.3555 5.36862L66.534 5.31741C68.8383 4.65638 71.4136 3.98222 73.9329 3.85376C76.4292 3.72648 78.7996 4.13906 80.7703 5.57224C83.6408 8.30707 86.1041 11.6103 84.9024 15.5128L84.7776 15.9182L85.0607 16.2341C89.1642 20.8124 95.7066 23.337 101.64 25.5296C101.911 25.6297 102.18 25.729 102.448 25.8278C105.151 26.8241 107.705 27.7655 109.892 28.8217C112.296 29.9825 114.155 31.2359 115.256 32.7533C115.263 32.7674 115.313 32.8775 115.372 33.1692C115.429 33.4528 115.479 33.8261 115.525 34.2825C115.591 34.9429 115.646 35.7306 115.707 36.6072C115.73 36.9466 115.755 37.2993 115.781 37.663C115.963 40.1739 116.237 43.1859 116.97 45.4793L116.88 46.9563C115.708 49.5095 114.458 53.0598 113.644 55.3711C113.423 55.9972 113.235 56.5324 113.088 56.9322C112.743 57.4419 112.435 57.7917 112.116 58.035C111.795 58.2806 111.434 58.4392 110.953 58.5173C110.325 58.6194 109.515 58.5837 108.373 58.4102L107.802 57.2767L105.424 57.9281L105.456 59.0636C103.437 60.6743 101.748 61.9899 99.1803 63.4843C98.3721 63.648 97.3113 63.6431 96.0734 63.5077C94.7912 63.3675 93.3742 63.0941 91.9433 62.7687C90.6387 62.472 89.3378 62.1356 88.1283 61.8229C88.0118 61.7928 87.8961 61.7629 87.7814 61.7332C86.4863 61.3988 85.2945 61.0955 84.3658 60.9214C80.9731 60.2834 78.9918 60.369 77.0959 61.0828C76.1739 61.43 75.2966 61.9167 74.3196 62.4863C74.1212 62.6019 73.9182 62.7213 73.7088 62.8445C72.8775 63.3334 71.9464 63.881 70.81 64.4857C66.2539 66.8589 64.48 70.8142 63.4214 74.8472C63.0814 76.1425 62.8063 77.4857 62.5396 78.788C62.3966 79.4859 62.2561 80.1721 62.1092 80.8328C61.7162 82.6014 61.2695 84.2379 60.5961 85.6648C52.8662 85.9456 42.8467 84.878 34.7462 82.1314C30.6168 80.7314 27.0373 78.912 24.5122 76.6555C22.0352 74.4421 20.6022 71.8397 20.5965 68.792L20.8956 67.9992L20.0567 67.8082C19.7487 67.7381 19.4916 67.6779 19.2889 67.6305C19.1424 67.5962 19.0242 67.5686 18.9358 67.5486C20.376 66.0903 21.9219 64.884 22.5383 64.4031C22.6642 64.3048 22.7514 64.2368 22.7908 64.2032L22.813 64.1843L22.8337 64.1637L23.1457 63.8527L22.3614 62.6161C21.971 62.7571 21.54 62.9048 21.0848 63.0608C20.0871 63.4027 18.9728 63.7846 17.9125 64.2238C17.141 64.5434 16.3656 64.9055 15.6443 65.3264C15.9894 64.551 16.4157 63.8093 16.8789 63.0673C17.0944 62.7221 17.3211 62.3724 17.5511 62.0177C18.2266 60.976 18.9301 59.891 19.4587 58.7497L20.4154 56.6843L18.4183 57.7765C16.1389 59.023 13.8569 60.5064 11.8074 62.17C12.0746 61.7164 12.3934 61.2525 12.7475 60.7763C13.0802 60.3289 13.4241 59.8957 13.7706 59.4591C13.9481 59.2354 14.1264 59.0109 14.3042 58.783C14.8162 58.127 15.314 57.4569 15.6923 56.7937C16.0951 56.089 16.5883 55.464 17.1117 54.8006C17.2025 54.6855 17.2942 54.5692 17.3866 54.4512C17.993 53.676 18.6195 52.8298 19.0144 51.8339L19.6426 50.2497L18.0501 50.8567C15.4885 51.833 10.3273 54.5922 6.95558 56.6326C7.80193 54.9658 9.06529 53.1049 10.4803 51.2598C12.5103 48.6129 14.784 46.0846 16.3933 44.3483L17.7245 42.912L15.7744 43.0916C14.8744 43.1746 13.769 43.532 12.6188 44.0056C11.4538 44.4853 10.1827 45.11 8.93362 45.7702C7.36945 46.5969 5.8143 47.4932 4.52636 48.2453C5.68283 46.7894 7.32971 45.1147 9.0981 43.4427C10.6178 42.0058 12.1749 40.618 13.5413 39.4002C14.3452 38.6838 15.083 38.0261 15.7084 37.452L17.3535 35.9416L15.1303 36.1528C14.0838 36.2523 12.8234 36.6219 11.5027 37.1106C10.1713 37.6034 8.72913 38.2363 7.30683 38.892C6.42569 39.2982 5.55755 39.7103 4.72608 40.1049C3.77262 40.5575 2.86737 40.9872 2.046 41.3589C3.69289 39.1113 6.20105 36.6731 8.91655 34.3015C10.6625 32.7767 12.4694 31.3 14.1474 29.9407C14.4075 29.73 14.6648 29.522 14.9183 29.3169C16.2952 28.2033 17.5635 27.1775 18.5929 26.2934L17.9058 25.0012L6.31831 28.1802C5.52992 28.2924 4.76165 28.5846 4.10433 28.8345C4.03743 28.86 3.97167 28.885 3.90715 28.9093C10.3604 22.3955 21.567 12.7367 28.9152 7.87185Z" fill="black" stroke="white" stroke-width="1.5"/>
<path d="M61.8529 10.9806L58.0819 12.4186C57.6289 11.5176 58.7579 10.6616 59.2079 9.81964C59.5299 9.20364 60.4549 8.85864 60.6729 8.11464C55.7959 7.32864 51.1869 4.93664 45.9849 5.76064C40.4219 6.63864 37.1829 8.76364 33.9799 11.3006C32.3629 12.1856 31.5839 13.4426 30.0119 14.5016C28.0919 16.2306 27.2569 19.6776 26.7789 20.3346C29.5639 19.1286 32.3659 19.3086 34.2579 18.6716C27.1429 23.1186 25.8999 31.8056 27.8679 39.0516L27.7519 39.2106C25.3609 37.7816 24.6689 35.1456 24.0069 32.8396C23.5359 34.3546 23.4689 36.2796 23.1479 37.9716C22.3839 37.2586 21.9639 36.2376 21.5379 35.3276C20.7389 42.9956 24.4759 49.2406 29.0589 55.2936C32.1269 59.3516 26.1359 62.0376 27.5469 67.1316L34.7529 66.7276C35.6819 66.3796 35.3929 66.5046 35.3929 66.5046C33.5869 70.1176 24.0279 72.8566 22.1919 74.9216C22.7049 75.3466 31.1089 72.7576 34.1829 72.2346L25.1379 77.3466C26.0369 77.6236 25.1099 80.6576 27.0839 80.3696C39.5919 84.0826 53.6809 89.2356 55.8759 83.8576C57.7069 80.4386 60.4169 74.6476 59.9979 71.3676L61.9389 68.4186C59.3489 69.0616 56.7399 70.1096 54.7369 72.2416C54.1379 70.9856 55.0789 69.4786 55.5469 68.2906C56.8899 65.8806 59.5729 64.6046 61.6979 63.2346L57.2339 61.2586C54.9839 57.3946 50.7109 54.2116 50.5949 49.6726L51.6519 50.0326C55.7209 54.6536 61.5059 58.4036 67.2989 58.6716C63.3559 58.3336 83.7699 55.9286 82.5699 54.1996C84.7399 57.3206 91.2989 58.6316 96.0899 60.2706C98.2909 59.4786 99.2519 59.7046 100.906 58.2136C100.201 57.4486 99.1109 56.8236 98.0619 56.4266C91.7669 54.6886 76.8999 51.6306 73.6969 45.4406C73.0929 48.0776 75.5349 50.2526 78.2629 52.5016L72.3899 51.6756C62.0589 46.8936 63.3069 38.6916 65.5769 30.8956L66.3619 37.4036L68.3869 40.9516C72.2379 33.9856 70.2219 34.8516 62.4889 25.4576L68.3209 27.6856C70.9839 29.8276 75.3609 33.5306 79.2419 36.1026C89.6949 42.9476 94.8669 47.4836 108.133 48.4136L112.225 49.3216C115.121 41.7316 109.506 34.7246 111.204 45.3326C109.038 42.7016 106.921 40.2666 107.362 38.8936C106.602 37.7466 110.505 34.8796 110.173 33.5746C106.343 29.6806 89.7839 27.5906 80.7919 18.6676C80.5279 20.1596 84.9499 24.0216 85.7159 25.3506C76.7979 25.4386 71.5419 22.6996 70.5889 19.8086C70.3939 19.3276 70.6359 17.1856 71.5869 16.4956C72.8739 15.8236 74.1279 14.8026 75.6069 14.6656C73.2909 12.7746 70.3569 15.3086 68.3049 16.4536C66.7109 19.1906 69.1939 22.2416 69.5069 24.4676C67.3319 23.9186 64.3959 20.0896 64.0359 17.6856C60.7299 18.0476 57.6959 17.6206 55.1549 15.7116C57.3979 15.2196 59.7149 14.3806 62.0609 13.9566C68.2039 12.6166 74.6589 6.30164 80.8639 11.2366L77.9749 7.56464C72.1839 6.95464 67.1479 9.64264 61.8529 10.9806Z" fill="#FF1A00"/>
<path d="M41.5893 13.7596C39.9403 15.6836 38.2873 17.6096 37.9023 20.1966L38.2713 20.6306C39.3733 19.3046 41.0243 18.1936 42.5453 17.4236C42.5473 20.1496 44.3053 22.8226 46.6553 24.1366L47.0503 24.1646C46.5523 21.2856 46.8843 17.7656 48.0103 15.1666C49.8033 13.6586 52.1613 13.0606 53.6783 11.4746C49.8813 10.5866 46.2673 11.3386 43.0203 12.5746L41.5893 13.7596Z" fill="black"/>
<path d="M79.7151 21.7713C78.1541 19.6143 75.9381 17.8833 73.1211 18.1293C73.1501 20.7913 76.7791 22.3433 79.7151 21.7713Z" fill="white"/>
<path d="M57.1896 22.1156C54.7446 22.3026 52.4536 22.7376 50.1486 23.3396C51.1656 24.2766 52.4506 24.5916 53.4146 25.4686C50.3976 26.6056 47.2386 27.3296 44.6016 29.6546L45.1476 29.9796C50.0256 28.9646 55.7926 29.0506 60.8796 30.1396L61.1736 29.9276L58.2256 24.5666L62.7586 23.5856C60.3536 21.3366 57.6026 19.1256 54.4366 18.1636C54.9206 19.4716 56.2526 20.7796 57.1896 22.1156Z" fill="black"/>
<path d="M74.8992 27.4896C77.3052 27.9346 79.9632 27.9926 82.2562 27.5636C78.4692 25.6316 73.6312 26.0116 70.6172 22.6196C71.1872 24.3996 72.4212 27.2686 74.8992 27.4896Z" fill="black"/>
<path d="M38.9033 41.1284C39.8463 44.1514 36.6733 47.8354 39.2153 50.6134C41.3803 53.1354 44.0253 55.2274 46.5693 57.0774L46.3443 56.1344C44.0783 53.4874 41.9953 50.5654 40.9483 47.4184C43.6043 48.3464 46.4113 49.6344 49.4443 50.0644C46.0283 44.9604 39.7663 40.0804 42.1253 33.0944C42.2543 31.9404 43.7803 31.0534 43.3963 29.9814C39.8263 32.7084 38.3323 36.7354 38.9033 41.1284Z" fill="black"/>
<path d="M85.7476 45.0703C85.4136 45.6593 85.5346 46.5203 85.4316 47.2443C86.1696 46.8653 86.6956 46.0453 87.4316 45.7263C87.2186 45.2883 86.2696 45.2863 85.7476 45.0703Z" fill="white"/>
<path d="M90.0742 49.5847L91.5922 48.0977C91.2562 47.8307 90.8072 47.4367 90.1972 47.5797L90.0742 49.5847Z" fill="white"/>
<path d="M93.6523 51.1876C94.0073 51.2136 94.8263 49.5446 95.1833 49.5696L93.9803 48.8586C93.5653 48.8326 93.7913 50.8936 93.6523 51.1876Z" fill="white"/>
<path d="M97.3479 51.9446L96.9629 52.8946C97.7989 52.8276 98.2269 51.2106 98.7289 50.7566C97.3379 50.4776 97.2849 50.0936 97.3479 51.9446Z" fill="white"/>
<path d="M101.312 54.1346L102.811 51.5656L101.415 51.2456L101.312 54.1346Z" fill="white"/>
<path d="M105.137 53.6904L106.852 52.3785C105.125 51.7005 105.027 51.4474 105.137 53.6904Z" fill="white"/>
<path d="M109.273 52.6505C109.527 53.3985 109.293 54.2975 109.242 55.0865C109.646 54.3205 110.574 53.7735 110.687 52.8655C110.292 52.5335 109.747 52.6825 109.273 52.6505Z" fill="white"/>
<path d="M57.7346 81.3216C58.2816 82.3526 58.3066 83.6066 58.8536 84.6366C60.1486 81.8436 60.0006 78.4886 58.3206 75.9776C55.3976 74.6896 52.5756 73.3526 50.0566 71.3066C51.1036 74.8776 54.5276 78.8136 57.7346 81.3216Z" fill="black"/>
<path d="M75.7221 22.0754C74.7691 21.8274 74.2121 20.7584 74.4721 19.6824C74.7401 18.6034 75.7241 17.9324 76.6791 18.1804C77.6341 18.4254 78.1911 19.4984 77.9291 20.5734C77.6631 21.6484 76.6751 22.3214 75.7221 22.0754Z" fill="black"/>
<path d="M56.6912 88.4617L59.5262 86.1516C56.7682 84.3606 52.1002 81.1476 49.5762 78.7646C51.5592 82.8896 51.6192 87.4527 56.6912 88.4617Z" fill="black"/>
<path d="M61.8544 89.1241C43.3962 90.5346 28.2459 84.6947 16.9924 70.2384L19.9215 69.0482C29.6486 82.8803 43.8131 87.0968 60.6632 86.534L61.8544 89.1241Z" fill="black" stroke="white"/>
</svg>
