<svg width="29" height="25" viewBox="0 0 29 25" fill="none" xmlns="http://www.w3.org/2000/svg">
<path d="M21.1981 7.36575C20.6798 7.05991 20.006 7.05991 19.4359 7.36575L15.3933 9.71056L12.6463 11.2398L8.60363 13.5846C8.08534 13.8904 7.41157 13.8904 6.84144 13.5846L3.62804 11.7495C3.10975 11.4437 2.74694 10.883 2.74694 10.2713V6.65211C2.74694 6.04043 3.05792 5.47971 3.62804 5.17387L6.78962 3.38978C7.30791 3.08393 7.98169 3.08393 8.55181 3.38978L11.7134 5.17387C12.2317 5.47971 12.5945 6.04043 12.5945 6.65211V8.99692L15.3414 7.41673V5.07192C15.3414 4.46023 15.0304 3.89952 14.4603 3.59367L8.60363 0.229383C8.08534 -0.0764611 7.41157 -0.0764611 6.84144 0.229383L0.881095 3.59367C0.310975 3.89952 0 4.46023 0 5.07192V11.8515C0 12.4632 0.310975 13.0239 0.881095 13.3297L6.84144 16.694C7.35974 16.9998 8.03351 16.9998 8.60363 16.694L12.6463 14.4002L15.3933 12.82L19.4359 10.5261C19.9542 10.2203 20.628 10.2203 21.1981 10.5261L24.3597 12.3102C24.878 12.6161 25.2408 13.1768 25.2408 13.7885V17.4076C25.2408 18.0193 24.9298 18.58 24.3597 18.8859L21.1981 20.721C20.6798 21.0268 20.006 21.0268 19.4359 20.721L16.2743 18.9369C15.7561 18.631 15.3933 18.0703 15.3933 17.4586V15.1138L12.6463 16.694V19.0388C12.6463 19.6505 12.9573 20.2112 13.5274 20.5171L19.4878 23.8813C20.006 24.1872 20.6798 24.1872 21.2499 23.8813L27.2103 20.5171C27.7286 20.2112 28.0914 19.6505 28.0914 19.0388V12.2593C28.0914 11.6476 27.7804 11.0869 27.2103 10.781L21.1981 7.36575Z" fill="#8247E5"/>
</svg>
