<svg xmlns="http://www.w3.org/2000/svg" width="100" height="25" fill="none" viewBox="0 0 100 25"><path fill="#fff" d="M18.745 0V24.069H16.606L2.386 3.914H2.198V24.069H0V0H2.127L16.394 20.179H16.582V0H18.745ZM32.001 24.445C30.4602 24.4843 28.9414 24.0739 27.63 23.264C26.3883 22.4634 25.3998 21.3262 24.78 19.985C24.0867 18.4689 23.7449 16.8157 23.78 15.149C23.7476 13.4786 24.0893 11.8222 24.78 10.301C25.3887 8.95974 26.3515 7.80983 27.565 6.975C28.7835 6.16427 30.2207 5.74554 31.684 5.775C32.6533 5.77324 33.6142 5.95476 34.516 6.31C35.4387 6.67591 36.2736 7.23275 36.966 7.944C37.7263 8.73224 38.3129 9.67109 38.688 10.7C39.1367 11.9609 39.3519 13.293 39.323 14.631V15.665H27.223V13.82H37.186C37.2028 12.7354 36.9629 11.6622 36.486 10.688C36.0486 9.79409 35.3789 9.03423 34.547 8.488C33.6945 7.93983 32.6983 7.65753 31.685 7.677C30.6069 7.6571 29.55 7.97801 28.665 8.594C27.7889 9.21271 27.0867 10.0464 26.626 11.015C26.131 12.0412 25.8759 13.1666 25.88 14.306V15.406C25.8508 16.6972 26.1055 17.979 26.626 19.161C27.0784 20.1781 27.8162 21.042 28.75 21.648C29.7262 22.2521 30.8574 22.5583 32.005 22.529C32.7743 22.5444 33.5391 22.4085 34.256 22.129C34.8681 21.8855 35.4241 21.5197 35.89 21.054C36.3151 20.6266 36.6545 20.1219 36.89 19.567L38.876 20.213C38.5825 21.0011 38.1236 21.7172 37.53 22.313C36.868 22.9815 36.076 23.5073 35.203 23.858C34.1852 24.2644 33.0967 24.4639 32.001 24.445V24.445ZM44.741 6.017L49.395 13.717L54.049 6.017H56.482L50.676 15.043L56.482 24.069H54.05L49.396 16.618L44.741 24.069H42.32L48.055 15.043L42.32 6.017H44.741ZM67.987 6.017V7.839H59.372V6.017H67.987ZM62.064 1.692H64.164V19.356C64.1317 19.9698 64.2658 20.581 64.552 21.125C64.7838 21.5256 65.1382 21.8411 65.563 22.025C65.9832 22.2021 66.435 22.2919 66.891 22.289C67.1271 22.2919 67.363 22.2742 67.596 22.236C67.792 22.2007 67.9643 22.1633 68.113 22.124L68.56 24.016C68.3149 24.1063 68.0636 24.1788 67.808 24.233C67.446 24.3056 67.0772 24.3391 66.708 24.333C65.9411 24.3333 65.184 24.1607 64.493 23.828C63.7877 23.4942 63.1856 22.9764 62.75 22.329C62.275 21.5913 62.037 20.7259 62.068 19.849L62.064 1.692ZM89.211 0H91.411V15.936C91.4363 17.4769 91.0378 18.9952 90.259 20.325C89.4916 21.6139 88.3846 22.6669 87.059 23.369C85.5878 24.1349 83.9472 24.517 82.289 24.48C80.6336 24.5152 78.9962 24.1313 77.529 23.364C76.2018 22.6612 75.0924 21.6085 74.321 20.32C73.5415 18.9923 73.1429 17.4754 73.169 15.936V0H75.369V15.783C75.3479 16.9769 75.6439 18.155 76.227 19.197C76.7958 20.1928 77.6325 21.009 78.642 21.553C79.7652 22.1456 81.0214 22.4409 82.291 22.411C83.5625 22.4405 84.8205 22.1452 85.946 21.553C86.956 21.0117 87.7925 20.1961 88.359 19.2C88.9383 18.1567 89.2322 16.9791 89.211 15.786V0ZM100 0V24.069H97.8V0H100Z"/></svg>